<?xml version="1.0" standalone="no"?>
<!DOCTYPE svg PUBLIC "-//W3C//DTD SVG 20010904//EN"
 "http://www.w3.org/TR/2001/REC-SVG-20010904/DTD/svg10.dtd">
<svg version="1.0" xmlns="http://www.w3.org/2000/svg"
 width="2466.000000pt" height="2466.000000pt" viewBox="0 0 2466.000000 2466.000000"
 preserveAspectRatio="xMidYMid meet">
<metadata>
Created by potrace 1.14, written by Peter Selinger 2001-2017
</metadata>
<g transform="translate(0.000000,2466.000000) scale(0.100000,-0.100000)"
fill="#000000" stroke="none">
<path d="M0 12325 l0 -10595 2920 0 2920 0 10 25 c5 14 13 25 18 25 5 0 29 18
53 41 24 22 90 65 146 95 57 31 105 59 108 64 3 5 51 32 108 60 56 29 125 69
152 90 58 43 135 120 135 133 0 16 80 111 123 145 47 38 149 96 187 107 14 4
66 33 115 65 50 31 126 77 170 101 55 30 104 69 156 122 42 42 83 77 91 77 9
0 22 7 29 17 8 9 51 47 96 85 76 63 86 68 130 69 66 1 277 -78 367 -137 46
-31 137 -104 148 -119 5 -6 24 -1 53 14 l45 24 62 -20 63 -20 98 49 c53 26
137 72 185 102 48 29 173 102 277 161 105 60 242 140 305 178 63 39 178 106
255 150 77 44 176 105 219 135 87 61 419 242 444 242 18 0 163 77 307 163 76
45 131 90 227 183 70 68 132 124 137 124 8 0 83 83 426 470 56 63 117 138 135
165 19 28 97 115 175 195 142 148 160 168 332 390 102 131 344 410 408 470 20
19 101 109 180 200 159 184 259 291 575 620 236 246 274 287 310 340 13 19 56
73 95 120 140 167 306 400 495 695 106 165 220 333 253 374 34 41 142 155 241
254 l181 180 120 58 c121 58 227 94 365 125 59 14 126 18 311 18 l237 0 56
171 c69 212 70 214 106 472 16 117 34 222 40 234 9 16 9 74 0 228 -6 113 -14
231 -18 261 -8 53 -8 51 -15 -51 -4 -58 -21 -198 -37 -310 -16 -112 -34 -247
-40 -299 -6 -52 -24 -145 -40 -206 -32 -125 -141 -410 -170 -447 -11 -13 -16
-28 -12 -32 12 -13 -209 2 -221 14 -9 9 -12 112 -12 369 1 322 3 370 23 487
50 289 92 442 169 608 40 88 45 104 40 150 -8 86 -28 220 -33 228 -2 4 -28 21
-57 37 -28 16 -86 60 -127 96 -45 39 -84 66 -98 66 -22 0 -22 -2 -15 -52 4
-29 8 -136 7 -238 -1 -293 -41 -478 -145 -680 -44 -87 -119 -205 -119 -189 0
4 8 35 19 70 36 122 46 241 46 539 -1 317 -9 387 -71 604 -50 174 -57 183
-198 271 -67 41 -127 84 -134 95 -13 21 -38 29 -26 8 4 -8 3 -10 -2 -5 -5 5
-9 13 -9 18 0 10 -115 112 -255 227 -131 106 -266 238 -406 397 -113 128 -169
178 -108 98 160 -215 472 -529 574 -577 19 -9 62 -42 95 -73 54 -52 53 -58 -3
-9 -15 13 -26 16 -32 10 -12 -12 -39 -145 -69 -339 -25 -161 -47 -616 -38
-792 4 -71 14 -152 22 -179 8 -27 15 -63 15 -81 0 -53 16 -80 106 -173 88 -91
159 -140 247 -169 27 -9 49 -20 49 -25 -1 -11 -116 -56 -142 -56 -23 0 -177
79 -225 116 -41 31 -140 216 -220 414 -65 157 -121 491 -132 783 -3 92 -10
164 -14 160 -4 -4 -10 -154 -14 -333 -6 -267 -4 -353 9 -480 39 -364 99 -663
157 -789 17 -35 28 -65 26 -67 -6 -6 -141 127 -189 186 -25 30 -65 84 -89 120
-44 67 -230 424 -280 540 -36 81 -37 56 -4 -96 61 -291 102 -395 221 -561 27
-37 49 -73 49 -80 0 -7 9 -19 20 -27 20 -15 20 -15 -1 -16 -61 -1 -246 181
-334 329 -30 50 -79 129 -109 174 -105 160 -181 356 -257 662 -19 77 -50 202
-69 278 -19 76 -38 163 -41 194 -4 33 -10 50 -15 41 -20 -37 -32 -193 -36
-508 -4 -281 -1 -408 16 -680 24 -382 36 -504 58 -610 17 -85 76 -266 103
-321 21 -39 176 -197 252 -254 153 -115 472 -178 612 -120 14 6 17 4 14 -5 -6
-20 -120 -87 -202 -122 -145 -60 -241 -72 -305 -39 -20 10 -57 26 -82 35 -56
20 -175 127 -239 215 -24 33 -50 61 -57 61 -18 0 -92 103 -140 196 -58 110
-109 246 -186 484 -102 318 -119 391 -176 790 -17 113 -42 281 -55 375 -23
149 -62 588 -82 910 -6 109 -7 111 -59 205 -149 268 -363 787 -456 1109 -72
249 -132 610 -128 762 1 32 0 62 -3 65 -11 10 -51 -253 -73 -476 -13 -138 -20
-263 -41 -745 -3 -78 0 -191 9 -282 l13 -152 43 -54 c83 -109 173 -209 204
-228 18 -10 85 -40 150 -65 105 -42 123 -46 169 -40 28 4 65 14 81 23 28 14
32 14 44 -3 19 -26 16 -54 -13 -113 -34 -68 -116 -151 -178 -179 -88 -41 -167
-31 -286 37 -19 11 -51 27 -72 36 -82 37 -211 180 -270 300 -45 90 -166 476
-192 610 -53 277 -60 402 -47 930 14 576 59 1028 166 1664 14 80 23 146 21
148 -2 2 -35 -36 -74 -84 -75 -94 -351 -378 -467 -481 -167 -148 -308 -212
-500 -227 -44 -3 -102 -8 -130 -11 l-50 -4 56 22 c30 13 62 28 70 35 422 350
569 598 1014 1708 64 160 119 298 122 307 4 13 -5 19 -39 28 -96 26 -536 272
-723 405 -213 152 -525 451 -622 597 -46 69 -100 190 -117 260 l-6 26 78 7
c351 30 669 115 967 259 147 71 355 199 338 209 -4 2 -35 13 -68 23 -53 16
-56 19 -30 21 61 7 173 47 265 94 58 30 179 112 310 210 282 211 495 352 661
438 155 80 298 133 348 129 l34 -3 -50 -60 c-140 -168 -357 -485 -497 -725
-89 -152 -63 -122 64 75 232 359 418 608 569 763 44 46 81 87 81 92 0 5 37 41
83 81 188 163 394 300 562 373 140 61 206 93 261 126 l52 31 63 -15 c127 -30
331 -58 367 -51 20 4 122 42 227 84 104 43 224 90 265 105 41 16 83 32 92 37
10 5 24 9 33 9 8 0 19 9 25 19 11 21 143 105 226 144 27 12 61 31 76 40 46 32
273 125 380 158 197 59 440 68 680 25 167 -30 288 -60 329 -82 36 -18 45 -18
29 1 -15 18 -147 68 -225 85 -136 29 -155 39 -218 122 -34 43 -34 47 0 44 16
-2 29 -11 34 -25 9 -22 34 -27 58 -12 10 7 1 24 -42 76 -30 36 -69 93 -86 125
-32 59 -41 121 -18 119 6 0 47 -41 90 -90 70 -80 108 -111 94 -76 -3 6 -8 20
-12 30 -12 30 10 19 30 -15 31 -54 81 -112 114 -131 25 -15 30 -15 25 -3 -3 8
-14 18 -24 21 -9 3 -26 15 -36 27 -19 21 -19 21 4 16 12 -4 22 -4 22 -1 0 2
-39 83 -86 178 -76 156 -85 179 -82 222 l3 48 26 -51 c62 -119 261 -348 314
-360 l29 -7 -32 43 c-18 24 -32 52 -32 62 0 9 -13 38 -29 63 -51 80 -107 245
-84 245 5 0 16 -12 26 -27 9 -16 25 -39 36 -53 l20 -25 -6 45 c-4 29 -2 41 4
35 25 -26 253 -409 253 -424 0 -7 51 -115 114 -240 118 -235 236 -498 236
-529 0 -21 39 -87 47 -79 15 16 -109 325 -215 531 -42 82 -77 157 -77 166 -2
20 -107 216 -283 524 -69 122 -148 271 -176 331 -54 119 -79 165 -153 277 -26
40 -53 80 -58 89 -6 9 -23 36 -39 60 -41 60 -142 296 -172 398 -13 46 -31 129
-40 185 -8 56 -19 118 -24 140 -11 52 16 140 45 144 16 2 31 -14 65 -68 98
-156 143 -220 242 -344 108 -137 421 -458 623 -642 213 -193 454 -404 461
-404 3 0 -4 16 -16 35 -15 25 -20 47 -18 79 l3 45 75 -121 c41 -67 87 -147
103 -177 15 -31 66 -103 113 -161 121 -149 254 -352 328 -504 128 -261 268
-734 280 -941 3 -44 10 -136 16 -205 29 -331 30 -917 0 -1270 -5 -69 -19 -298
-31 -510 -11 -212 -24 -395 -29 -408 -6 -13 -21 -25 -39 -28 -34 -7 -35 -10
-51 -170 -32 -310 -51 -397 -94 -444 -30 -32 -143 -211 -163 -259 -44 -104
-68 -656 -58 -1351 7 -569 14 -625 86 -785 50 -110 124 -235 139 -235 14 0 48
-83 56 -133 l7 -49 -260 -256 c-372 -369 -458 -444 -745 -650 -204 -145 -657
-450 -730 -492 -50 -27 -56 -34 -48 -50 6 -10 10 -31 10 -45 0 -23 -9 -30 -66
-56 -135 -62 -246 -94 -351 -104 -34 -3 -104 -19 -155 -36 -61 -20 -117 -32
-163 -33 -46 -2 -92 -11 -135 -28 -76 -30 -224 -102 -262 -129 -33 -24 -38
-24 -38 0 0 21 68 87 105 101 13 5 61 18 107 29 213 51 797 239 888 286 69 36
10 25 -136 -25 -198 -68 -800 -256 -844 -264 -40 -7 -121 -59 -141 -90 -7 -12
-15 -60 -17 -112 -4 -90 -4 -91 24 -113 26 -21 36 -22 104 -16 347 29 850 167
1063 291 32 19 104 56 160 82 75 35 109 58 130 85 18 24 82 69 190 133 219
132 580 363 899 576 47 32 91 58 97 58 5 0 14 6 18 13 4 8 70 55 146 106 76
51 180 126 232 166 l93 74 109 -6 c138 -6 220 10 347 71 53 25 99 46 103 46
12 0 252 -73 300 -91 l21 -8 -28 -133 c-38 -179 -72 -311 -131 -509 -69 -232
-65 -263 8 -59 29 83 47 117 86 161 26 30 71 89 99 130 50 74 51 74 44 34 -3
-22 -6 -47 -6 -55 0 -43 2 -50 11 -50 5 0 9 -27 9 -59 0 -33 14 -142 31 -243
26 -156 42 -218 109 -416 80 -235 142 -382 161 -382 6 0 9 7 6 14 -4 9 -1 13
7 10 27 -10 145 200 213 381 34 91 36 823 3 1149 l-10 98 36 67 c46 83 102
158 162 213 46 43 47 43 51 18 4 -30 -28 -169 -44 -190 -7 -8 -18 -30 -26 -47
-8 -18 -17 -33 -21 -33 -5 0 -8 -5 -8 -10 0 -6 -13 -39 -29 -73 -38 -83 -46
-118 -26 -111 10 4 15 0 15 -15 0 -12 5 -21 11 -21 5 0 7 -4 4 -10 -15 -25 16
-7 39 23 15 17 30 37 35 43 5 6 19 32 30 58 12 25 25 46 30 46 12 0 21 -129
20 -300 -1 -80 2 -237 6 -350 9 -273 -6 -504 -44 -676 -56 -249 -141 -505
-194 -584 -36 -52 -41 -90 -16 -119 16 -20 22 -22 29 -11 7 11 11 11 24 1 13
-11 23 -7 66 29 28 24 60 60 70 80 14 27 33 45 67 61 26 13 78 42 115 66 l67
43 7 57 c4 31 4 99 1 152 -16 249 -29 389 -51 579 -39 333 -49 438 -43 453 3
8 6 -2 6 -21 1 -36 21 -82 21 -49 1 91 -47 478 -86 692 l-25 138 29 40 c16 21
32 36 35 32 4 -3 13 0 21 6 11 10 18 8 35 -10 23 -24 61 -33 61 -14 0 6 7 12
15 12 15 0 18 -11 18 -74 1 -21 6 -33 15 -33 9 0 11 -7 7 -20 -4 -13 -1 -22 9
-26 21 -8 20 -31 -1 -43 -16 -9 -16 -12 -3 -21 10 -6 11 -10 3 -10 -20 0 -15
-18 7 -30 14 -7 26 -8 39 0 16 8 22 6 30 -7 6 -10 11 -13 12 -8 2 13 27 -134
45 -270 24 -177 30 -835 11 -1022 -20 -180 -32 -390 -23 -382 10 10 123 406
131 461 6 42 4 52 -34 115 l-41 69 7 222 c3 122 9 222 12 222 19 0 99 -154
121 -232 l17 -63 16 56 c9 31 37 135 62 230 96 372 118 454 125 457 5 2 6 13
4 25 -2 12 -1 16 2 8 8 -16 38 69 55 157 9 45 15 58 20 45 4 -10 7 7 7 41 0
37 5 61 13 66 8 6 13 34 14 82 1 62 7 84 38 150 20 42 37 81 37 87 0 6 14 41
31 78 17 38 37 82 45 100 8 18 40 133 71 255 30 123 59 227 63 231 21 24 11
-78 -31 -319 -55 -315 -94 -494 -232 -1079 -35 -148 -74 -315 -86 -370 -11
-55 -37 -148 -56 -208 -19 -59 -52 -180 -74 -270 -33 -137 -153 -550 -177
-611 -7 -18 -4 -18 52 -11 32 5 93 11 134 14 l75 6 8 85 c9 102 52 451 107
875 22 171 49 387 60 480 21 180 50 337 99 525 90 351 131 515 131 533 0 11 3
18 6 15 6 -7 -11 -157 -52 -458 -53 -394 -69 -538 -89 -810 -11 -139 4 -85 20
76 22 215 38 346 94 734 27 190 57 408 66 485 9 77 22 187 30 245 8 58 20 171
26 252 10 119 15 143 24 125 6 -12 19 -22 30 -22 16 0 21 -9 25 -40 4 -32 9
-40 25 -40 36 0 45 -14 45 -70 0 -35 5 -55 13 -58 13 -5 30 -113 28 -176 -1
-13 8 -30 19 -38 13 -9 20 -25 20 -48 0 -19 4 -36 8 -39 5 -3 8 -59 7 -125 -2
-116 -1 -120 22 -132 13 -7 23 -20 23 -29 0 -9 9 -25 20 -35 12 -11 20 -31 20
-50 0 -18 7 -38 15 -45 8 -7 15 -21 15 -32 0 -10 7 -21 16 -25 11 -4 14 -16
12 -42 -2 -32 0 -36 20 -35 15 0 22 -5 22 -17 0 -10 9 -23 20 -29 11 -6 31
-22 46 -35 15 -14 31 -25 36 -25 5 0 6 -9 3 -20 -4 -11 -2 -20 4 -20 6 0 8 -6
5 -14 -7 -18 17 -65 45 -90 20 -18 21 -18 21 -1 0 15 3 16 12 7 9 -9 11 -259
10 -1009 -1 -549 -3 -1045 -4 -1103 -2 -58 1 -166 6 -240 12 -179 13 -249 4
-243 -5 2 -8 -1 -8 -6 0 -6 4 -11 8 -11 4 0 6 -16 4 -36 -3 -26 -1 -35 7 -30
13 9 14 1 2 -22 -14 -26 -37 -390 -40 -621 -1 -79 -4 -147 -6 -151 -5 -8 -14
-334 -20 -700 -2 -160 -15 -417 -30 -613 -55 -721 -79 -1328 -74 -1859 4 -351
0 -449 -14 -356 -2 18 -14 91 -26 162 -71 422 -108 838 -118 1296 -3 173 -7
317 -9 319 -2 2 -4 -101 -4 -230 0 -249 14 -579 30 -744 5 -55 14 -164 20
-242 17 -249 87 -693 141 -898 34 -127 44 -139 150 -170 46 -13 140 -47 207
-75 68 -27 130 -50 137 -50 7 0 19 16 26 35 l14 36 58 -30 c79 -41 85 -47 89
-89 3 -34 8 -40 62 -68 48 -26 65 -30 89 -23 52 15 137 -33 137 -77 0 -18 12
-30 48 -49 72 -40 116 -67 151 -97 18 -16 36 -28 40 -28 18 0 71 -59 71 -78 0
-22 -12 -27 -53 -22 -32 3 -86 -21 -107 -47 -33 -42 -26 -84 20 -127 22 -20
45 -34 50 -31 6 3 10 0 10 -7 0 -8 3 -9 8 -3 4 6 30 22 57 36 52 26 85 28 85
4 0 -18 37 -39 42 -25 5 15 48 -18 48 -37 0 -9 10 -27 21 -40 18 -18 20 -25
10 -37 -7 -8 -8 -17 -3 -20 5 -3 17 13 26 36 19 49 39 41 34 -13 -2 -26 -8
-35 -26 -37 -12 -2 -20 -8 -17 -13 4 -5 -3 -9 -14 -9 -12 0 -20 3 -20 8 6 34
-1 39 -47 32 -25 -4 -50 -13 -54 -20 -4 -7 -13 -9 -19 -6 -6 4 -11 2 -11 -5 0
-7 -12 -9 -32 -6 -46 7 -109 32 -101 40 3 4 2 7 -4 7 -6 0 -14 -7 -17 -16 -4
-11 -10 -13 -23 -6 -22 13 -93 3 -118 -17 -31 -25 -28 -107 5 -145 42 -48 93
-96 102 -96 13 0 38 -26 38 -39 0 -5 10 -9 23 -9 12 1 36 0 52 -1 l30 -4 -35
-7 -35 -7 38 -2 c20 0 37 -6 37 -12 0 -6 15 -10 33 -8 17 1 47 1 66 0 30 -1
33 -3 27 -26 -6 -22 -3 -25 19 -25 16 0 25 6 25 15 0 8 7 15 15 15 8 0 15 -8
15 -18 0 -28 11 -34 27 -14 11 14 11 11 -1 -19 -7 -20 -17 -55 -21 -78 -4 -22
-14 -46 -23 -51 -14 -9 -14 -10 4 -5 14 3 36 -4 62 -21 35 -23 42 -34 48 -71
3 -24 4 -70 2 -103 -3 -36 -1 -57 5 -53 6 4 8 -6 4 -25 -4 -17 -2 -34 3 -37 6
-3 10 -15 10 -26 0 -11 7 -22 15 -25 9 -4 13 -14 10 -28 -6 -23 29 -54 40 -36
10 16 28 11 21 -5 -3 -8 -1 -15 5 -15 5 0 12 7 15 15 4 8 10 15 14 15 4 0 1
-37 -6 -82 -8 -46 -19 -117 -25 -158 -6 -41 -14 -77 -19 -80 -4 -3 -11 -41
-15 -85 -4 -44 -19 -111 -32 -150 -14 -38 -27 -87 -30 -107 -3 -21 -8 -36 -12
-34 -3 2 -4 -16 -2 -41 2 -27 -2 -49 -9 -56 -10 -10 -11 -1 -7 38 l5 50 -15
-45 c-8 -25 -21 -76 -28 -115 -21 -102 -59 -239 -67 -243 -5 -2 -8 -23 -8 -47
0 -25 -6 -50 -15 -58 -7 -8 -17 -28 -20 -43 -4 -16 -15 -54 -25 -84 -10 -30
-29 -89 -41 -130 -60 -204 -156 -479 -171 -490 -19 -14 -36 -95 -43 -197 l-7
-111 -2356 -1 c-1296 -1 -2358 -4 -2361 -6 -2 -3 1333 -5 2967 -5 l2972 0 0
919 0 919 -87 16 c-49 9 -106 17 -128 19 l-40 4 43 1 c23 1 42 5 42 8 0 15
-37 33 -67 34 l-33 0 0 69 c0 111 11 191 26 191 22 0 18 50 -3 51 -12 1 -10 4
7 9 37 12 110 11 154 -1 21 -6 49 -8 62 -5 l24 6 0 9475 0 9475 -12330 0
-12330 0 0 -10595z m16390 10186 c0 -99 57 -317 116 -447 32 -70 33 -76 14
-71 -11 3 -20 2 -20 -3 0 -4 -12 -11 -27 -15 -40 -10 -63 -34 -63 -66 0 -22
-5 -28 -26 -31 -23 -3 -29 -12 -50 -77 -25 -77 -28 -102 -18 -163 l7 -38 66
-1 66 -1 -55 -14 c-40 -9 -56 -10 -62 -1 -9 15 -16 -21 -22 -127 l-5 -88 39 6
c25 4 40 2 40 -4 0 -5 25 -10 55 -10 39 0 55 -4 55 -13 0 -10 -17 -12 -68 -11
-37 2 -74 -1 -82 -6 -11 -7 -7 -10 18 -10 22 0 32 -5 32 -15 0 -11 -11 -15
-42 -15 -23 0 -39 -3 -36 -6 3 -3 44 -6 91 -6 83 -1 86 -1 92 -26 3 -13 3 -37
0 -53 -4 -16 -3 -29 2 -29 4 0 9 -89 11 -198 1 -108 5 -241 8 -294 l6 -98
-134 0 c-74 0 -169 -3 -210 -6 l-75 -7 -6 29 c-3 16 -9 38 -13 49 -7 19 -6 19
12 3 43 -37 43 -35 48 227 8 393 35 734 90 1115 30 209 47 291 87 430 17 58
34 113 36 122 9 29 23 9 23 -31z m155 -541 c3 -6 -1 -7 -9 -4 -18 7 -21 14 -7
14 6 0 13 -4 16 -10z m-380 -1421 c-18 -5 -33 -5 -39 1 -7 7 4 10 30 9 39 -1
39 -1 9 -10z m-3678 -722 c228 -155 471 -231 738 -232 180 0 249 14 410 88
138 62 205 90 182 74 -11 -6 -65 -42 -120 -78 -112 -72 -253 -185 -364 -293
-40 -38 -73 -64 -73 -58 0 7 -11 9 -30 6 -44 -9 -37 11 8 22 29 8 18 9 -53 6
-80 -4 -101 -1 -184 27 -197 65 -309 142 -521 355 -127 128 -240 257 -240 273
0 2 37 -27 83 -65 45 -38 119 -95 164 -125z m7533 -57 c205 -106 467 -285 611
-417 31 -29 66 -56 77 -60 21 -8 20 -10 -20 -73 -22 -36 -43 -67 -47 -70 -8
-7 -27 -48 -42 -92 -15 -44 -19 -46 -45 -16 -10 11 -80 67 -154 122 -129 97
-298 201 -424 262 l-59 29 -64 190 c-35 105 -66 198 -69 207 -6 16 1 15 64 -6
39 -13 116 -48 172 -76z m-7110 -99 c36 -11 58 -20 50 -20 -17 -1 -140 37
-125 38 6 1 39 -8 75 -18z m7119 -298 c182 -98 541 -355 541 -386 0 -18 -44
-132 -53 -138 -28 -19 -34 -277 -12 -481 14 -133 49 -289 76 -340 19 -35 18
-14 -2 46 -46 142 -68 322 -65 551 2 132 5 157 26 208 12 31 24 56 25 55 1 -2
-4 -43 -12 -93 -20 -130 -12 -356 17 -455 33 -114 102 -251 180 -357 38 -52
70 -101 70 -109 0 -13 -63 -57 -254 -178 l-89 -56 -3 -56 c-2 -39 1 -60 11
-71 8 -8 15 -21 15 -28 0 -8 -36 -51 -80 -97 -44 -46 -80 -86 -80 -90 0 -3
-41 -40 -91 -82 l-91 -76 -29 17 c-35 21 -35 27 -13 228 9 80 18 273 21 453 4
286 6 313 21 307 61 -25 128 -44 169 -49 37 -5 22 3 -67 32 l-115 39 -7 44
c-3 24 -7 76 -7 115 -1 80 -33 348 -56 474 -23 123 -80 368 -115 495 -32 118
-33 125 -24 125 4 0 46 -21 93 -47z m735 -137 c-10 -20 -24 -36 -31 -36 -15 0
-13 6 20 53 26 38 32 28 11 -17z m-7609 4 c4 -6 -6 -10 -22 -10 -22 0 -25 2
-13 10 19 12 27 12 35 0z m7685 -5 c0 -3 -5 -14 -12 -24 -9 -15 -8 -22 5 -36
9 -9 17 -25 17 -35 0 -28 11 -50 24 -50 12 0 56 -120 56 -151 0 -9 6 -22 14
-28 7 -6 16 -32 19 -56 9 -59 43 -135 62 -135 9 0 15 -9 15 -22 0 -13 13 -37
30 -55 17 -18 34 -52 41 -80 6 -26 17 -53 24 -58 15 -13 37 -109 29 -130 -3
-8 -1 -15 6 -15 6 0 9 -4 5 -9 -3 -5 -1 -12 4 -15 5 -4 15 -23 22 -43 6 -20
22 -46 35 -57 12 -12 25 -36 29 -53 6 -29 4 -33 -14 -33 -12 0 -21 -5 -21 -11
0 -6 -9 -9 -20 -6 -16 4 -18 2 -11 -11 4 -10 6 -23 4 -29 -3 -7 0 -13 6 -13 6
0 11 -6 11 -14 0 -7 8 -16 19 -19 13 -3 20 -16 23 -43 3 -22 8 -46 11 -54 5
-11 1 -15 -17 -15 -20 0 -31 13 -61 70 -20 39 -57 106 -82 150 -246 432 -252
444 -258 497 -3 29 -10 102 -16 162 -10 107 -25 157 -53 173 -8 5 -15 33 -18
73 -5 58 -2 71 25 123 16 31 34 57 38 57 5 0 9 -2 9 -5z m-2016 -322 c40 -314
58 -1361 27 -1585 -7 -52 -6 -56 10 -48 13 8 21 4 34 -18 10 -15 28 -39 42
-53 l23 -26 -69 -16 c-38 -9 -92 -17 -120 -17 l-52 0 7 68 c3 37 10 103 15
147 5 44 9 105 9 136 0 35 5 59 12 61 6 2 12 29 13 64 1 32 7 109 14 169 7 70
10 267 7 540 -3 459 0 625 14 625 4 0 11 -21 14 -47z m1731 -1563 c5 -14 -4
-35 -27 -68 -19 -26 -51 -78 -72 -115 -65 -120 -105 -177 -120 -171 -7 3 -28
23 -45 44 -17 22 -52 51 -76 66 -25 14 -45 27 -45 29 0 7 165 110 211 132 25
13 70 40 100 62 30 22 57 40 61 41 4 0 10 -9 13 -20z m58 -158 c-2 -10 3 -38
11 -62 9 -25 16 -52 16 -61 0 -8 -25 -64 -56 -123 -51 -99 -55 -111 -44 -136
10 -25 8 -35 -16 -80 -16 -30 -33 -49 -40 -46 -7 3 -30 10 -52 15 -54 15 -72
39 -79 106 l-6 56 74 107 c40 59 84 118 97 132 12 14 37 44 55 67 34 45 48 54
40 25z m-1883 -228 c15 -39 -47 -294 -71 -294 -5 0 -9 6 -10 13 0 6 -2 20 -4
29 -7 37 51 278 67 278 5 0 13 -12 18 -26z m95 -303 c18 -7 17 -9 -10 -26 -79
-48 -104 -67 -162 -117 -68 -60 -160 -167 -199 -233 -13 -23 -38 -80 -55 -126
-17 -46 -34 -88 -39 -94 -24 -31 -33 -242 -33 -775 0 -305 2 -573 5 -595 4
-22 9 -96 12 -165 5 -113 5 -122 -8 -95 -31 67 -41 476 -26 1065 11 436 14
499 39 654 22 138 178 359 323 457 84 58 111 66 153 50z m214 -161 c68 -63
144 -141 170 -175 41 -51 46 -64 38 -83 -13 -29 -23 -28 -41 6 -8 15 -65 78
-126 141 -61 63 -110 121 -109 130 1 9 1 22 0 28 -1 16 -73 53 -103 53 -19 0
-20 2 -8 10 30 20 60 2 179 -110z m-12564 45 c9 -34 9 -45 0 -45 -22 0 -35 25
-35 69 0 56 18 44 35 -24z m12334 16 c-13 -16 -52 -62 -87 -103 -35 -40 -72
-83 -82 -95 -22 -27 -42 -30 -33 -5 12 31 80 126 114 159 30 27 97 73 108 73
2 0 -7 -13 -20 -29z m-12442 -48 c19 -50 64 -101 95 -108 18 -4 27 -9 21 -12
-17 -6 -99 25 -114 43 -15 19 -29 94 -17 94 5 0 12 -8 15 -17z m68 -135 c6 -6
-1 -7 -20 -2 -16 3 -34 11 -40 16 -6 6 1 7 20 2 17 -3 35 -11 40 -16z m12154
-129 c-9 -5 -8 -11 4 -24 21 -21 13 -37 -16 -30 -12 3 -27 2 -33 -2 -12 -9
-28 -225 -50 -688 -9 -187 -18 -342 -21 -345 -6 -6 5 609 16 845 6 140 9 156
29 178 12 13 22 29 22 35 0 7 8 12 18 13 10 0 12 3 5 6 -9 3 -7 16 10 46 l22
42 3 -34 c2 -19 -2 -37 -9 -42z m1438 56 c303 -40 462 -100 574 -217 37 -39
58 -93 114 -288 15 -52 41 -140 59 -195 29 -95 31 -108 30 -255 -1 -136 -4
-167 -28 -250 -27 -97 -30 -113 -66 -375 -12 -82 -33 -197 -47 -255 -36 -144
-149 -410 -195 -460 -22 -23 -42 -22 -183 6 -38 8 -119 21 -180 29 -60 8 -155
26 -210 39 -55 13 -149 34 -210 46 -184 35 -230 53 -297 115 -33 31 -83 71
-111 89 -29 19 -77 57 -107 84 -30 28 -56 47 -58 41 -2 -5 -9 -9 -16 -9 -70 0
-83 375 -31 892 37 354 117 703 185 798 11 15 20 37 20 48 0 26 16 38 86 63
69 25 364 67 476 68 42 1 130 -6 195 -14z m-1560 -337 c-2 -13 -4 -5 -4 17 -1
22 1 32 4 23 2 -10 2 -28 0 -40z m-17 -287 c-6 -130 -14 -238 -17 -241 -5 -5
-1 104 14 385 3 66 8 114 11 106 3 -8 -1 -120 -8 -250z m637 97 c-3 -8 -6 -5
-6 6 -1 11 2 17 5 13 3 -3 4 -12 1 -19z m-10 -50 c-3 -8 -6 -5 -6 6 -1 11 2
17 5 13 3 -3 4 -12 1 -19z m-13630 -29 c6 -6 39 -13 74 -16 35 -3 69 -10 75
-14 6 -5 49 -11 95 -14 56 -3 87 -9 94 -18 6 -8 28 -17 50 -21 22 -3 59 -9 82
-12 24 -4 40 -10 38 -14 -3 -4 2 -10 10 -14 8 -3 15 -12 15 -20 0 -8 8 -21 18
-28 28 -20 52 -60 52 -85 0 -16 6 -23 20 -23 25 0 25 -1 -1 -44 -17 -30 -19
-41 -11 -65 8 -23 7 -32 -3 -41 -15 -13 -26 -70 -13 -70 5 0 -1 -14 -14 -31
-13 -17 -31 -45 -42 -63 -10 -17 -30 -42 -43 -56 l-25 -25 22 -5 c21 -5 21 -7
6 -19 -9 -7 -16 -28 -16 -45 0 -19 -14 -52 -36 -86 -20 -30 -37 -60 -38 -66
-1 -7 -21 -37 -45 -69 -28 -37 -46 -53 -51 -45 -5 8 -17 -1 -38 -26 -20 -24
-28 -42 -22 -48 6 -6 5 -16 -1 -28 -5 -10 -7 -18 -4 -18 3 0 -5 -19 -18 -42
-33 -58 -60 -144 -54 -173 2 -14 0 -22 -6 -18 -5 3 -7 -9 -3 -33 4 -22 2 -66
-4 -99 -6 -39 -6 -61 0 -63 6 -2 10 -13 9 -25 0 -21 -1 -21 -8 -2 -6 16 -11
10 -21 -32 -8 -29 -17 -50 -21 -47 -14 9 -31 87 -35 159 -2 39 -6 93 -9 120
-3 28 -8 77 -11 109 -2 33 -7 62 -9 66 -2 4 -9 54 -15 111 -14 150 -38 358
-50 436 -35 236 -50 577 -28 630 6 15 11 31 10 36 -3 11 12 9 25 -4z m1984
-424 c9 -27 24 -54 33 -60 12 -9 16 -29 16 -74 0 -34 -4 -61 -10 -61 -5 0 -10
-7 -10 -16 0 -13 -5 -12 -29 5 -33 24 -46 27 -35 9 4 -7 -3 -4 -15 7 -30 26
-48 59 -29 53 7 -3 13 -10 13 -15 0 -6 3 -15 8 -19 18 -18 4 20 -23 63 -38 60
-40 88 -5 79 20 -5 25 -3 25 13 0 32 19 73 32 69 7 -3 20 -26 29 -53z m11087
-690 c7 -28 17 -90 22 -139 6 -48 20 -125 30 -170 11 -44 20 -94 20 -110 0
-25 -2 -27 -16 -15 -44 36 -86 224 -98 439 l-7 105 19 -30 c10 -17 24 -53 30
-80z m-128 -306 c48 -94 72 -161 62 -171 -28 -28 -136 181 -118 229 9 22 24 7
56 -58z m530 -82 c0 -2 -30 -28 -67 -57 -38 -29 -59 -43 -48 -30 11 12 40 38
65 56 45 34 50 37 50 31z m-11379 -280 c21 -113 21 -113 -4 -124 -25 -12 -34
0 -55 77 -6 19 -16 50 -24 68 -12 31 -11 34 11 51 23 18 24 18 43 -1 10 -10
23 -42 29 -71z m-180 -47 c12 -43 28 -79 41 -89 17 -15 19 -21 9 -39 -9 -17
-9 -33 3 -72 8 -28 12 -58 9 -66 -6 -16 4 -70 34 -193 13 -53 23 -131 16 -131
-6 0 -45 74 -58 109 -14 40 -14 41 5 31 11 -6 20 -16 20 -22 0 -6 2 -9 5 -6
13 12 -39 142 -84 211 -28 42 -57 96 -65 122 -17 50 -21 109 -7 101 5 -3 11
12 15 34 6 40 26 93 33 86 2 -2 13 -36 24 -76z m11303 15 c-17 -41 -20 -79 -4
-55 8 12 12 12 18 2 7 -9 13 -7 28 9 10 12 38 34 61 50 98 68 114 13 28 -96
-31 -39 -60 -71 -65 -73 -5 -2 -22 4 -39 12 -16 9 -46 16 -66 16 -36 0 -36 1
-30 33 9 41 32 86 58 115 27 29 29 28 11 -13z m-11385 -170 c0 -5 -4 -3 -9 5
-5 8 -9 22 -9 30 0 16 17 -16 18 -35z m11399 -23 c27 -18 27 -24 3 -46 -19
-17 -22 -17 -66 10 l-47 27 23 18 c25 19 47 17 87 -9z m-68 -77 l24 -25 -35
-36 c-19 -20 -97 -89 -174 -153 -119 -100 -182 -147 -348 -261 -12 -8 90 101
227 243 138 141 257 257 266 257 9 0 27 -11 40 -25z m-12054 -176 c3 -5 10 -7
15 -4 10 7 16 -5 23 -47 3 -15 7 -32 10 -37 9 -14 -23 -43 -43 -39 -9 2 -17
14 -19 26 -2 13 -10 26 -18 29 -8 3 -14 18 -14 35 0 16 -5 38 -10 48 -9 18 -8
18 20 9 16 -6 33 -15 36 -20z m1184 -130 c0 -54 -2 -60 -15 -49 -18 15 -20 75
-2 95 6 8 13 14 15 15 1 0 2 -28 2 -61z m-210 43 c0 -5 9 -20 20 -33 11 -13
23 -29 28 -34 5 -6 17 -24 26 -40 13 -21 3 -14 -32 22 -47 49 -71 93 -51 93 5
0 9 -4 9 -8z m-22 -58 c-4 -3 -12 5 -18 18 -12 22 -12 22 6 6 10 -10 15 -20
12 -24z m13322 22 c0 -3 -4 -8 -10 -11 -5 -3 -10 -1 -10 4 0 6 5 11 10 11 6 0
10 -2 10 -4z m-1035 -161 c55 -13 133 -27 173 -30 39 -4 72 -10 72 -14 0 -17
-250 -234 -298 -260 -23 -12 -24 -12 -17 18 7 33 -1 71 -15 71 -5 0 -30 -32
-56 -72 -45 -70 -114 -165 -114 -157 0 2 18 65 40 139 22 74 50 181 63 238 17
82 25 101 37 96 8 -3 60 -16 115 -29z m394 -98 c1 -43 -2 -58 -11 -55 -7 3
-14 14 -16 26 -2 12 -8 20 -13 17 -17 -11 -10 68 8 87 17 19 18 19 24 1 4 -10
8 -44 8 -76z m-133 -119 c62 -12 67 -15 120 -64 27 -26 34 -40 34 -70 0 -22 3
-50 7 -63 l6 -25 -31 22 c-17 13 -60 36 -96 53 -56 26 -76 30 -146 30 -109 -1
-119 4 -83 42 35 37 102 87 118 87 6 0 38 -5 71 -12z m502 -238 c5 -47 6 -89
2 -94 -21 -22 -29 12 -28 122 0 130 10 119 26 -28z m-14628 7 c30 -14 49 -26
43 -26 -31 -2 -9 -20 30 -26 84 -12 96 -17 102 -35 3 -10 13 -21 21 -24 12 -5
14 -1 9 17 -6 20 -5 21 8 5 8 -10 19 -18 24 -18 5 0 21 -9 34 -21 17 -14 32
-19 51 -15 16 3 28 1 28 -4 0 -5 16 -1 35 10 l36 20 24 -26 c26 -28 33 -54 15
-54 -5 0 -10 3 -10 8 0 4 -23 8 -50 8 -46 2 -50 0 -50 -21 0 -13 8 -26 18 -30
13 -5 3 -12 -38 -25 -40 -14 -57 -16 -62 -7 -10 17 -57 -11 -52 -32 5 -16 -5
-22 -158 -90 -38 -17 -68 -36 -68 -43 0 -8 -3 -9 -8 -3 -4 6 -17 11 -28 13
-15 2 -23 -4 -27 -20 -4 -13 -16 -29 -28 -37 -26 -16 -69 -22 -69 -10 0 5 -9
18 -19 28 -11 11 -22 41 -26 68 -3 26 -11 71 -16 98 -6 28 -12 107 -14 176 -5
153 1 168 60 149 33 -11 39 -10 47 3 10 18 34 12 138 -36z m11488 -74 c-59
-43 -153 -109 -210 -146 -57 -37 -152 -101 -212 -142 -108 -74 -128 -83 -154
-66 -10 6 6 19 55 46 83 46 315 193 399 251 77 55 206 133 219 134 5 0 -38
-35 -97 -77z m-10688 -24 c0 -11 5 -17 10 -14 6 3 10 -1 10 -9 0 -21 0 -21 10
-56 10 -36 7 -37 -20 -8 l-20 22 0 -22 c0 -30 -21 -28 -59 5 -39 35 -39 52 2
81 40 28 67 29 67 1z m-136 -42 c4 -44 3 -46 -15 -34 -28 17 -34 45 -13 68 9
10 19 18 20 16 2 -2 5 -24 8 -50z m206 2 c9 -31 8 -32 -5 -15 -8 11 -15 29
-15 40 0 26 9 16 20 -25z m354 -2 c22 25 24 26 40 10 10 -9 20 -34 24 -54 6
-38 6 -38 12 -9 9 48 28 42 35 -11 4 -26 9 -57 12 -68 5 -17 4 -18 -10 -7 -18
15 -18 6 0 -38 30 -73 24 -74 -38 -6 -54 58 -64 66 -70 50 -6 -16 -10 -12 -24
20 -9 22 -19 55 -22 73 -3 18 -9 30 -14 27 -13 -8 -11 5 4 20 10 12 13 10 20
-10 l8 -23 23 26z m256 -2 c0 -7 7 -18 16 -23 11 -6 16 -27 17 -74 1 -36 6
-63 11 -60 5 3 7 -5 4 -16 -4 -13 -2 -20 3 -16 5 3 8 -8 7 -25 l-2 -31 -33 32
c-37 36 -77 130 -68 159 4 11 10 17 15 14 15 -9 21 14 10 35 -9 16 -8 20 5 20
8 0 15 -7 15 -15z m9430 -342 c0 -9 -1 -14 -3 -12 -1 2 -11 15 -22 28 l-20 24
23 -12 c12 -6 22 -19 22 -28z m-9243 -240 c-3 -10 -5 -2 -5 17 0 19 2 27 5 18
2 -10 2 -26 0 -35z m87 -104 c9 -50 15 -93 13 -96 -10 -9 -47 65 -49 98 -2 19
-7 37 -13 41 -6 5 -5 8 3 8 6 0 12 9 12 20 0 11 4 20 9 20 5 0 16 -41 25 -91z
m-967 -71 c2 -22 19 -38 41 -38 10 0 10 5 2 20 -12 23 -6 24 39 9 20 -7 31
-18 31 -30 0 -10 4 -19 9 -19 19 0 71 -52 71 -71 0 -11 13 -37 29 -57 40 -51
62 -107 48 -121 -7 -7 -7 -11 -1 -11 6 0 16 10 22 23 l11 22 0 -25 c1 -14 6
-32 12 -40 7 -11 9 -7 8 20 -2 62 0 68 20 63 20 -5 22 -15 57 -278 4 -27 8
-54 9 -60 1 -5 5 -32 9 -60 4 -27 9 -61 11 -74 13 -79 29 17 22 123 -4 44 -15
108 -27 140 -27 81 -26 127 5 164 27 32 31 48 14 54 -7 2 -5 9 5 17 14 12 16
11 16 -8 0 -26 8 -26 36 0 l22 21 7 -22 c6 -20 9 -19 37 19 16 23 33 41 38 41
14 0 55 -243 54 -322 -1 -68 2 -78 17 -78 10 0 18 8 18 18 0 9 1 32 1 50 1 22
6 32 17 32 14 0 15 -12 11 -87 -3 -49 -10 -99 -16 -113 -6 -14 -15 -51 -22
-83 -9 -47 -14 -56 -25 -47 -8 6 -11 19 -9 28 5 14 2 13 -10 -2 -14 -17 -16
-18 -16 -3 0 9 -4 17 -9 17 -6 0 -6 -12 -1 -30 10 -34 1 -39 -18 -10 -18 30
-32 24 -32 -13 0 -19 -3 -37 -7 -41 -4 -3 -8 -14 -9 -24 -3 -20 -21 -120 -26
-142 -1 -8 -11 -18 -20 -22 -11 -4 -18 -18 -18 -33 0 -29 -24 -34 -35 -7 -6
15 -8 15 -25 -5 -12 -15 -29 -23 -49 -23 -20 0 -35 -7 -43 -20 -7 -11 -16 -20
-21 -20 -4 0 -5 5 -2 10 8 14 2 13 -31 -5 -16 -8 -37 -15 -47 -15 -10 0 -28
-5 -39 -11 -12 -7 -44 -13 -72 -16 -28 -2 -91 -9 -141 -15 -107 -13 -421 -11
-555 4 -52 5 -122 12 -154 14 -79 5 -99 20 -115 85 -20 85 -26 280 -11 334 12
42 16 46 37 41 71 -18 76 -19 69 -8 -8 14 32 21 114 21 65 -1 248 29 355 56
74 20 75 20 75 -14 0 -36 23 -61 56 -61 15 0 24 -6 24 -15 0 -11 12 -15 45
-15 31 0 47 -5 51 -15 9 -23 37 -19 31 5 -4 16 -2 18 13 10 24 -13 66 -13 91
0 16 9 19 7 19 -15 0 -22 3 -24 18 -16 25 13 66 -8 70 -38 3 -22 5 -22 22 -6
12 11 29 16 44 13 14 -3 23 -2 21 3 -3 4 4 10 15 14 24 8 25 17 4 60 -12 26
-13 38 -4 54 6 12 15 21 20 21 13 0 13 97 0 102 -5 2 -11 29 -12 60 -2 32 -6
58 -10 58 -4 0 -3 14 2 30 5 17 8 30 7 31 -33 14 -87 4 -87 -15 0 -11 -30 -33
-34 -24 -1 2 -6 12 -12 23 -12 22 -51 28 -46 7 1 -7 -14 -20 -33 -28 -28 -11
-35 -20 -33 -37 2 -18 -3 -23 -24 -25 -16 -2 -28 -8 -28 -13 0 -18 -32 -9 -37
11 -7 25 -53 28 -53 4 0 -22 -54 -12 -92 16 -19 14 -28 16 -28 8 0 -7 -14 3
-31 22 -26 29 -30 31 -26 13 10 -44 -10 -23 -32 33 -12 33 -21 79 -21 112 0
41 -3 53 -10 42 -12 -18 -12 40 -1 80 6 22 8 23 17 8 7 -14 12 -10 26 23 9 21
12 39 7 39 -6 0 -1 14 11 30 12 17 27 29 33 27 7 -2 36 10 67 25 52 28 55 29
60 10 4 -16 10 -18 28 -11 12 5 22 15 22 24 0 24 36 18 37 -7z m823 -118 c0
-5 -7 -10 -15 -10 -8 0 -15 5 -15 10 0 6 7 10 15 10 8 0 15 -4 15 -10z m-71
-825 c1 -16 -5 -13 -29 15 -34 40 -37 71 -12 105 l17 23 12 -62 c6 -33 12 -70
12 -81z m356 23 c-7 -78 -25 -108 -50 -85 -8 7 -9 14 -3 18 5 3 10 20 10 38 1
17 5 34 10 37 4 3 6 10 3 15 -4 5 -1 9 4 9 6 0 11 9 11 20 0 11 5 20 10 20 7
0 9 -25 5 -72z m14672 -75 c-3 -10 -5 -2 -5 17 0 19 2 27 5 18 2 -10 2 -26 0
-35z m-12386 -756 c9 -13 22 -47 28 -77 17 -88 41 -303 41 -372 0 -36 4 -89 9
-119 5 -30 13 -128 16 -219 4 -91 11 -232 15 -315 8 -165 4 -482 -9 -616 -4
-47 -16 -101 -25 -120 -9 -19 -20 -53 -23 -76 -4 -30 -9 -40 -20 -36 -7 3 -13
2 -12 -3 5 -29 -4 -64 -21 -84 -11 -13 -20 -27 -20 -33 0 -5 -7 -4 -15 3 -8 7
-15 10 -15 6 0 -3 -9 2 -20 11 -11 10 -20 23 -20 30 0 6 -4 15 -10 18 -6 4 -7
-1 -4 -12 4 -10 -5 -1 -20 19 -14 20 -26 49 -26 63 0 14 -6 36 -14 48 -8 12
-17 43 -20 69 -4 25 -14 52 -21 58 -17 14 -21 35 -5 25 12 -7 12 -3 4 19 -3 9
-13 16 -21 16 -10 0 -14 7 -10 20 3 11 1 20 -3 20 -5 0 -7 9 -5 20 2 13 0 18
-7 14 -5 -4 -14 0 -19 7 -6 9 -9 1 -9 -26 l-1 -40 -14 30 -13 30 -2 -35 c-1
-19 -2 -39 -1 -43 1 -5 -3 -6 -9 -2 -5 3 -10 2 -10 -4 0 -6 -9 -18 -19 -28
-11 -10 -24 -34 -29 -53 -6 -19 -11 -27 -11 -17 -1 9 -5 17 -11 17 -5 0 -10 8
-11 18 0 14 -2 14 -8 -3 -7 -17 -9 -15 -16 15 -4 19 -11 37 -15 40 -5 3 -20
50 -34 104 -14 55 -31 103 -36 106 -21 13 -32 476 -13 526 6 16 15 82 19 145
3 63 10 119 14 124 8 10 12 32 29 160 4 33 9 49 9 36 2 -28 17 -19 25 14 3 12
6 4 7 -20 l3 -40 7 50 c6 47 7 49 17 25 11 -24 12 -24 12 -2 1 12 5 22 9 22
10 0 32 -67 32 -94 0 -10 5 -14 10 -11 6 4 10 -21 10 -67 1 -66 2 -71 15 -54
14 18 15 16 16 -35 l1 -54 12 48 c12 51 26 53 26 4 0 -46 7 -29 13 33 4 37 2
48 -4 35 -6 -13 -7 -3 -3 30 8 59 14 70 15 29 1 -28 2 -28 10 6 4 19 17 84 29
145 12 60 26 112 32 116 5 4 12 33 14 65 2 33 8 75 13 94 5 19 17 63 26 98 9
35 24 72 33 83 22 26 63 24 83 -4z m12289 -1542 c-7 -110 -18 -247 -25 -305
l-13 -105 5 135 c5 172 21 415 30 488 15 109 16 -3 3 -213z m-16040 -209 c25
-3 57 -9 71 -14 15 -6 29 -8 32 -6 3 3 16 -2 29 -10 14 -9 27 -13 30 -10 10 9
49 -16 43 -27 -4 -5 -2 -9 4 -9 18 0 39 -42 66 -135 49 -169 59 -273 41 -435
-3 -30 -2 -68 2 -85 8 -27 13 -30 49 -31 23 -1 48 -4 57 -7 9 -4 16 -3 16 2 0
4 9 7 21 6 11 -1 48 5 82 13 66 15 122 17 227 8 203 -16 264 -50 331 -182 23
-46 57 -92 105 -139 39 -38 84 -95 101 -125 59 -107 120 -320 116 -410 0 -14
-3 -241 -7 -505 -3 -264 -9 -664 -12 -890 -3 -225 -5 -444 -4 -485 1 -41 -6
-122 -15 -178 -9 -57 -14 -110 -11 -118 3 -8 0 -14 -6 -14 -7 0 -9 -17 -5 -50
4 -30 2 -50 -4 -50 -6 0 -6 -7 1 -20 9 -17 6 -23 -22 -40 -28 -18 -43 -20
-103 -14 -106 10 -192 11 -259 2 -34 -4 -118 -12 -187 -18 -119 -10 -129 -10
-185 11 -84 31 -91 39 -144 164 -19 43 -32 123 -31 180 0 45 -2 56 -10 45 -8
-11 -9 -2 -5 35 3 28 5 124 4 215 -2 91 -1 221 0 290 3 139 -12 287 -34 328
-8 15 -14 38 -14 52 0 20 -2 22 -10 10 -8 -12 -10 -11 -10 8 0 12 -6 22 -15
22 -18 0 -35 -59 -35 -123 0 -27 -5 -57 -10 -67 -13 -25 -23 -340 -10 -320 7
11 10 3 10 -28 0 -24 -3 -41 -7 -39 -5 3 -9 -11 -10 -31 -1 -21 -4 -57 -8 -82
-4 -25 -6 -86 -5 -136 1 -76 -3 -98 -20 -133 -12 -22 -26 -44 -31 -47 -5 -3
-6 -10 -3 -16 4 -6 2 -8 -3 -5 -6 4 -16 0 -23 -8 -7 -8 -23 -15 -36 -15 -13 0
-24 -4 -24 -10 0 -5 -13 -10 -30 -10 -22 0 -30 -5 -30 -18 0 -10 -6 -27 -14
-37 -13 -18 -14 -18 -20 3 -4 12 -12 22 -17 22 -5 0 -9 7 -9 15 0 8 -4 15 -9
15 -7 0 -15 39 -26 125 -1 11 -6 88 -9 170 -4 83 -11 202 -16 265 -5 63 -14
178 -20 255 -13 183 -34 395 -74 735 -3 25 -10 135 -16 245 -9 180 -27 382
-35 395 -2 3 -6 46 -9 95 -4 50 -9 115 -13 145 -3 30 -6 156 -8 280 -2 124 -8
248 -15 275 -6 28 -14 160 -17 295 -6 282 1 341 48 391 29 31 30 32 102 25 39
-4 92 -8 117 -10z m16015 -456 c3 -233 2 -244 -20 -308 l-24 -67 -1 65 c0 99
19 501 26 533 3 16 8 26 11 23 3 -3 7 -114 8 -246z m1582 -2827 c-11 -10 -26
8 -20 23 5 15 7 14 15 -1 6 -9 7 -19 5 -22z m-40 5 c-3 -8 -6 -5 -6 6 -1 11 2
17 5 13 3 -3 4 -12 1 -19z m-17682 -890 c5 4 5 1 1 -6 -5 -8 13 -35 49 -73 31
-34 54 -63 52 -66 -3 -2 -1 -21 4 -41 6 -20 12 -47 15 -60 5 -26 27 -66 81
-147 22 -33 48 -76 57 -96 32 -68 88 -114 236 -192 41 -22 86 -46 99 -53 32
-17 170 -126 201 -159 l24 -25 -25 -18 c-13 -9 -26 -16 -29 -15 -3 0 -39 4
-80 7 -79 6 -123 17 -230 59 -99 38 -104 40 -119 41 -8 1 -19 10 -25 21 -6 11
-14 22 -17 25 -4 3 -9 15 -13 28 -4 12 -12 22 -17 22 -5 0 -9 7 -9 15 0 8 -36
52 -81 97 -45 46 -89 95 -98 109 -9 14 -37 50 -63 80 -87 99 -97 112 -103 138
-4 14 -15 34 -26 44 -10 10 -19 25 -19 34 0 11 -13 1 -36 -25 -20 -23 -40 -40
-45 -36 -8 5 -13 -10 -10 -30 1 -5 -2 -12 -6 -15 -5 -3 -17 -26 -28 -51 -10
-25 -26 -51 -34 -58 -9 -7 -17 -17 -17 -22 -1 -6 -2 -14 -3 -19 0 -5 -7 -16
-15 -23 -7 -8 -23 -33 -35 -55 -11 -23 -27 -47 -34 -55 -8 -8 -22 -27 -31 -43
-53 -96 -144 -200 -193 -221 -43 -19 -112 -18 -119 0 -6 16 -92 31 -123 21
-27 -8 -27 -32 0 -40 14 -5 18 -10 10 -14 -7 -5 -1 -13 16 -22 25 -12 45 -34
48 -49 1 -3 8 -18 15 -33 11 -23 12 -47 2 -130 -21 -191 -47 -264 -101 -287
-42 -17 -203 -4 -219 18 -10 14 -14 14 -21 3 -6 -10 -10 -10 -16 -1 -4 7 -17
9 -32 5 -17 -4 -22 -2 -18 5 4 6 -13 1 -36 -11 -36 -18 -63 -23 -147 -25 -68
-2 -100 1 -96 8 4 6 -1 8 -15 3 -12 -3 -65 -6 -119 -5 -125 2 -142 3 -142 11
0 4 -12 12 -28 18 -40 17 -65 92 -70 217 -4 108 14 212 45 246 10 11 12 18 5
18 -7 0 -12 13 -12 29 0 23 5 30 27 36 20 5 23 9 13 15 -9 5 3 10 36 15 27 3
76 11 109 16 33 6 74 12 90 14 17 3 59 9 95 15 36 5 112 13 170 16 58 4 112
10 121 15 19 10 166 12 229 3 61 -8 94 7 126 57 20 33 25 50 21 83 -7 62 -11
71 -40 110 -16 20 -25 36 -22 36 4 0 0 7 -8 15 -16 15 -64 31 -85 26 -8 -1
-19 3 -26 8 -7 6 -47 16 -87 22 -95 14 -116 15 -159 6 -30 -6 -33 -5 -18 7 16
12 16 14 -7 24 -51 23 -87 11 690 222 326 89 466 130 479 142 5 4 15 3 21 -2
7 -5 16 -6 20 -2z m18222 -144 c-3 -3 -12 -4 -19 -1 -8 3 -5 6 6 6 11 1 17 -2
13 -5z m138 -10 l40 -15 -40 6 c-22 4 -44 11 -49 16 -14 13 3 11 49 -7z m-548
-76 c-3 -8 -6 -5 -6 6 -1 11 2 17 5 13 3 -3 4 -12 1 -19z m-21 -120 c-16 -165
-37 -293 -46 -296 -5 -2 -10 -10 -10 -17 0 -8 -4 -16 -8 -19 -10 -6 8 117 18
124 6 4 40 229 40 263 0 4 3 7 6 7 4 0 4 -28 0 -62z m-17505 -541 c7 -9 -12
-86 -34 -138 -8 -20 -31 -54 -49 -75 -19 -22 -47 -57 -61 -79 -15 -22 -27 -35
-27 -30 0 6 -7 1 -15 -9 -18 -24 -22 -21 -29 26 -4 26 1 52 15 85 11 26 22 56
24 66 10 48 119 168 150 164 11 -1 23 -6 26 -10z m-2727 -69 c-5 -8 0 -9 14
-6 12 4 22 2 22 -3 0 -5 6 -9 13 -9 33 -1 57 -35 62 -92 8 -79 -9 -136 -43
-149 -68 -27 -179 -34 -258 -16 -73 17 -117 17 -149 0 -40 -20 -116 -35 -146
-29 -17 3 -59 -1 -94 -10 -59 -15 -71 -15 -148 0 -47 10 -96 14 -110 11 -29
-8 -137 20 -137 35 0 6 -6 10 -14 10 -30 0 -25 19 9 40 20 12 42 28 49 36 8 7
40 17 73 20 32 4 60 10 63 14 11 14 160 49 232 53 42 3 85 10 96 16 12 6 48
11 81 11 44 0 73 7 111 26 38 19 77 28 153 35 56 6 107 12 112 14 16 6 17 6 9
-7z m-1037 -241 c-8 -20 -56 -31 -73 -16 -21 17 -17 29 9 29 12 0 29 5 37 10
18 11 35 -3 27 -23z m334 -320 c23 -16 27 -16 32 -2 4 8 2 15 -3 15 -6 0 -10
3 -10 8 0 4 39 4 88 0 48 -4 164 -10 257 -13 94 -4 203 -10 243 -16 40 -5 111
-9 158 -9 72 0 90 -4 122 -24 56 -35 69 -61 71 -141 1 -57 -3 -78 -22 -110
-37 -66 -70 -75 -259 -75 -243 1 -268 0 -336 -11 -35 -6 -95 -8 -135 -4 -40 3
-96 9 -126 11 -33 4 -71 0 -100 -9 -86 -28 -159 -38 -219 -31 -40 4 -87 1
-147 -11 -97 -19 -156 -13 -231 25 -42 22 -70 25 -79 10 -4 -6 -28 -22 -55
-35 -46 -23 -61 -25 -197 -26 -82 -1 -191 -1 -243 -2 -192 -2 -216 0 -253 18
-44 21 -103 23 -172 7 -193 -46 -332 -50 -412 -11 -66 32 -80 56 -82 142 -2
67 1 78 25 106 39 47 58 53 184 62 63 5 149 14 190 20 41 7 104 13 140 15 108
5 308 23 439 38 90 11 144 12 195 6 91 -12 86 -12 86 5 0 20 11 19 105 -5 43
-11 86 -20 95 -20 9 0 27 9 40 20 13 11 33 20 45 20 12 0 24 3 28 6 3 4 25 8
48 9 29 3 38 1 29 -6 -9 -5 -10 -9 -3 -9 6 0 18 7 27 15 12 12 42 16 128 18
62 1 125 -1 141 -6 22 -6 27 -4 27 11 0 16 7 17 58 12 31 -3 69 -14 83 -23z
m2650 -91 c21 -11 39 -25 40 -31 0 -5 6 -17 12 -25 13 -16 13 -41 0 -107 -10
-51 -56 -111 -100 -129 -61 -26 -343 -35 -343 -12 0 4 -7 8 -15 8 -13 0 -64
44 -65 55 -2 33 -27 95 -39 95 -12 0 -12 3 -3 12 18 18 15 31 -5 24 -12 -4 -9
1 7 15 14 12 24 26 23 30 -2 5 2 9 9 9 6 0 8 3 5 6 -13 13 35 43 86 54 29 7
93 14 142 17 50 3 92 6 94 8 10 11 120 -10 152 -29z m427 -7 c2 -9 -5 -19 -14
-23 -24 -9 -28 -1 -9 18 19 19 16 20 -22 6 -26 -10 -27 -9 -8 5 24 19 49 16
53 -6z m-5331 -35 c25 -25 26 -28 18 -107 -10 -117 -8 -128 25 -162 17 -17 30
-37 30 -44 0 -7 5 -9 10 -6 6 3 10 1 10 -4 0 -6 -4 -11 -10 -11 -5 0 -10 -7
-10 -15 0 -22 -33 -35 -91 -35 -40 0 -64 -7 -107 -32 -43 -24 -67 -31 -111
-32 -74 0 -110 20 -171 98 -28 35 -58 67 -66 70 -11 4 -33 -9 -68 -42 -65 -62
-122 -80 -195 -62 -28 7 -54 17 -58 23 -3 5 8 23 25 38 43 39 52 60 52 126 0
75 6 94 36 116 22 16 30 17 82 6 64 -14 80 -13 102 6 20 18 65 28 93 21 13 -3
43 -23 67 -46 67 -59 109 -53 154 24 55 95 130 123 183 70z m5316 -17 c7 -18
-3 -67 -14 -67 -5 0 -8 3 -8 8 4 22 -3 30 -23 24 -16 -4 -19 -2 -13 9 24 41
48 52 58 26z m-1120 -26 c5 -1 6 -5 3 -10 -3 -5 1 -14 9 -21 12 -10 9 -17 -19
-46 -42 -43 -78 -42 -114 4 l-24 31 26 26 c22 22 33 25 69 21 23 -2 46 -5 50
-5z"/>
<path d="M20158 19645 c209 -138 314 -230 471 -409 20 -23 37 -34 39 -27 11
33 -193 243 -340 348 -80 58 -288 183 -304 183 -4 0 56 -43 134 -95z"/>
<path d="M20460 17949 c-41 -10 -106 -23 -145 -27 l-70 -9 53 -2 c58 -1 189
23 237 44 42 18 14 16 -75 -6z"/>
<path d="M18761 17514 c0 -11 3 -14 6 -6 3 7 2 16 -1 19 -3 4 -6 -2 -5 -13z"/>
<path d="M19675 16078 c-166 -23 -223 -72 -278 -243 -27 -82 -62 -292 -77
-460 -5 -55 -14 -143 -19 -195 -6 -52 -11 -197 -12 -323 l-3 -227 45 -88 c49
-98 108 -167 191 -223 80 -54 171 -87 433 -155 425 -109 413 -107 450 -70 39
39 60 92 130 326 36 124 77 259 90 300 63 195 84 302 100 509 17 218 17 224
-29 379 -15 54 -32 89 -45 99 -12 8 -21 20 -21 26 0 27 -57 158 -87 201 -18
25 -47 55 -65 66 -39 24 -137 46 -238 55 -41 3 -129 12 -195 19 -134 15 -280
17 -370 4z m421 -723 c23 -14 52 -37 63 -51 26 -33 27 -85 3 -107 -17 -16 -21
-16 -59 3 -105 50 -204 25 -250 -65 -50 -95 19 -255 108 -255 51 0 58 17 15
35 -29 13 -36 21 -36 44 0 44 21 55 93 47 77 -8 127 -24 126 -39 -2 -47 -47
-231 -58 -235 -6 -2 -28 -1 -47 2 -28 6 -34 11 -34 32 0 25 -1 25 -58 18 -69
-7 -102 6 -150 61 -65 73 -77 109 -77 225 0 91 3 111 24 150 49 93 93 132 181
161 39 13 109 1 156 -26z"/>
<path d="M6956 11459 c-11 -11 -15 -19 -9 -19 12 0 38 28 32 34 -2 2 -13 -5
-23 -15z"/>
<path d="M7051 11385 c-1 -11 6 -42 13 -70 l14 -50 1 51 c1 30 -5 58 -14 70
-14 19 -14 19 -14 -1z"/>
<path d="M7372 11153 c-3 -65 6 -88 10 -27 1 16 7 32 13 37 6 4 5 10 -5 17
-13 8 -12 10 3 10 21 0 18 24 -4 28 -11 2 -15 -13 -17 -65z"/>
<path d="M7360 11070 c-13 -8 -12 -10 3 -10 9 0 17 5 17 10 0 12 -1 12 -20 0z"/>
<path d="M9833 9255 c0 -22 2 -30 4 -17 2 12 2 30 0 40 -3 9 -5 -1 -4 -23z"/>
<path d="M9851 8464 c0 -11 3 -14 6 -6 3 7 2 16 -1 19 -3 4 -6 -2 -5 -13z"/>
<path d="M15760 20191 c87 -19 246 -103 375 -199 305 -227 648 -582 952 -985
53 -70 98 -125 100 -123 16 16 -305 426 -516 660 -239 265 -503 480 -718 588
-95 47 -135 62 -175 64 -44 3 -47 2 -18 -5z"/>
<path d="M15446 19728 c167 -118 343 -276 477 -427 135 -154 154 -173 103
-104 -63 84 -217 253 -307 337 -103 96 -293 236 -320 236 -7 0 14 -19 47 -42z"/>
<path d="M17760 19736 c0 -2 8 -10 18 -17 15 -13 16 -12 3 4 -13 16 -21 21
-21 13z"/>
<path d="M14593 19678 c-27 -31 -55 -79 -107 -184 -52 -104 -119 -264 -113
-270 2 -2 14 22 27 54 38 93 154 326 188 376 34 51 36 58 5 24z"/>
<path d="M14649 19644 c-29 -69 -39 -120 -37 -199 0 -38 2 -59 4 -45 2 14 9
59 15 100 6 41 19 101 29 133 22 69 17 74 -11 11z"/>
<path d="M14435 19652 c-75 -25 -270 -212 -358 -344 -56 -84 -174 -298 -164
-298 3 0 26 39 52 88 100 184 250 379 353 458 49 37 59 38 43 2 -10 -21 -10
-21 1 -3 7 11 32 39 56 63 23 23 41 42 40 41 -2 -1 -12 -4 -23 -7z"/>
<path d="M14102 19585 c-37 -31 -86 -104 -142 -210 -24 -45 -63 -100 -93 -130
-29 -28 -79 -87 -112 -130 -33 -44 -83 -109 -111 -145 -99 -126 -403 -651
-376 -650 4 1 48 71 97 157 50 86 128 215 175 287 47 72 108 165 135 206 55
85 189 265 205 275 16 10 13 2 -34 -102 -24 -54 -50 -120 -59 -148 -32 -96
-76 -259 -73 -263 2 -2 10 14 16 35 26 78 101 263 174 427 78 176 148 301 205
367 40 47 36 60 -7 24z"/>
<path d="M14327 19495 c-24 -50 -20 -58 4 -12 11 22 19 41 17 43 -3 2 -12 -12
-21 -31z"/>
<path d="M14296 19425 c-9 -26 -7 -32 5 -12 6 10 9 21 6 23 -2 3 -7 -2 -11
-11z"/>
<path d="M14602 19185 c-3 -185 18 -526 34 -554 14 -25 15 -23 10 29 -3 30 -8
96 -11 145 l-5 90 20 -75 c10 -41 20 -84 20 -95 1 -11 4 -15 6 -9 3 7 -4 57
-16 112 -18 91 -44 290 -53 412 -2 25 -4 0 -5 -55z"/>
<path d="M16070 19126 c0 -2 8 -10 18 -17 15 -13 16 -12 3 4 -13 16 -21 21
-21 13z"/>
<path d="M14681 18684 c0 -11 3 -14 6 -6 3 7 2 16 -1 19 -3 4 -6 -2 -5 -13z"/>
<path d="M13246 18293 c-6 -14 -5 -15 5 -6 7 7 10 15 7 18 -3 3 -9 -2 -12 -12z"/>
<path d="M12433 18118 c-53 -104 -104 -211 -101 -214 2 -2 34 57 71 131 37 74
65 135 62 135 -3 0 -17 -24 -32 -52z"/>
<path d="M12106 17710 c-191 -104 -356 -140 -640 -140 -207 0 -379 16 -605 55
-79 14 -146 23 -148 21 -7 -6 208 -53 325 -71 142 -21 511 -36 623 -24 90 9
127 18 269 66 79 26 208 90 250 123 37 29 24 24 -74 -30z"/>
<path d="M12215 17657 c-8 -21 -22 -53 -29 -72 -8 -19 -13 -35 -10 -35 9 0 66
132 60 138 -3 3 -13 -11 -21 -31z"/>
<path d="M12638 17183 c-23 -6 -45 -79 -63 -208 -15 -105 -16 -103 32 -156
l23 -25 -19 -105 c-17 -89 -25 -174 -22 -215 1 -6 36 -34 79 -62 71 -47 84
-52 134 -52 l56 0 7 58 c15 123 75 468 101 573 14 60 24 111 23 112 -18 11
-215 67 -254 72 -27 3 -57 8 -65 9 -8 2 -23 1 -32 -1z m107 -48 c57 -19 111
-32 120 -29 8 4 36 0 61 -7 38 -11 45 -17 41 -34 -16 -66 -58 -259 -67 -307
l-11 -58 -46 0 c-51 0 -96 29 -200 127 -62 58 -63 63 -33 227 11 60 20 111 20
113 0 6 12 3 115 -32z"/>
<path d="M12831 17016 c-27 -89 -53 -219 -49 -248 2 -13 13 27 26 87 13 61 30
134 38 164 22 77 9 75 -15 -3z"/>
<path d="M16067 17133 c-3 -3 -31 -7 -63 -10 -32 -3 -69 -9 -83 -14 -41 -12
204 0 294 15 l80 14 -112 0 c-61 0 -114 -2 -116 -5z"/>
<path d="M16815 17121 c6 -5 42 -12 80 -15 57 -5 65 -4 40 5 -43 15 -133 23
-120 10z"/>
<path d="M17174 17072 c6 -10 145 -36 152 -29 3 3 -21 10 -53 17 -32 6 -69 13
-81 16 -13 3 -21 1 -18 -4z"/>
<path d="M15698 17063 c7 -3 16 -2 19 1 4 3 -2 6 -13 5 -11 0 -14 -3 -6 -6z"/>
<path d="M15415 17011 c-11 -5 -40 -11 -65 -15 -54 -8 -79 -21 -65 -35 6 -5
42 4 95 25 47 18 78 33 70 33 -8 0 -24 -4 -35 -8z"/>
<path d="M15890 16290 c-103 -6 -154 -14 -215 -34 -44 -15 -98 -31 -120 -37
-48 -13 -195 -97 -195 -111 0 -19 88 0 144 32 35 20 66 30 83 28 28 -3 27 -4
-22 -38 -27 -19 -67 -52 -90 -73 l-40 -38 62 44 c99 71 213 134 278 152 33 10
69 21 80 26 11 5 80 7 153 5 90 -2 140 1 155 9 17 9 81 11 233 7 115 -2 207
-2 204 1 -7 7 -276 26 -440 31 -74 2 -196 0 -270 -4z m-210 -85 c0 -2 -9 -9
-20 -15 -16 -9 -20 -8 -20 5 0 8 9 15 20 15 11 0 20 -2 20 -5z"/>
<path d="M16285 16159 c-146 -8 -392 -35 -422 -46 -11 -4 -12 -8 -3 -13 7 -4
-29 -21 -86 -40 -157 -52 -236 -90 -231 -111 4 -13 -24 -38 -110 -99 -63 -45
-118 -92 -123 -104 -4 -11 -23 -34 -41 -51 -28 -24 -31 -30 -17 -33 10 -2 43
8 75 22 31 15 57 25 59 23 2 -2 -17 -30 -41 -63 -54 -72 -58 -90 -8 -43 37 35
36 26 -4 -27 -13 -17 -23 -38 -23 -46 0 -9 -16 -28 -35 -42 -34 -26 -47 -56
-23 -56 6 0 36 25 65 55 77 78 94 89 127 74 20 -10 29 -10 38 -1 7 7 22 12 34
12 12 0 54 24 94 54 106 81 376 196 458 196 l22 0 -19 -37 c-33 -66 -69 -195
-76 -276 l-7 -79 53 41 c57 43 110 58 179 48 30 -4 43 -1 57 15 53 59 139 69
171 20 9 -15 26 -36 38 -47 12 -12 23 -27 25 -34 2 -6 13 -13 22 -15 10 -1 22
-8 26 -15 10 -15 68 -6 126 20 51 23 154 25 196 3 17 -8 33 -13 37 -10 3 4 -1
27 -9 54 -14 43 -18 47 -49 50 -55 4 -64 10 -50 27 10 13 9 15 -11 15 -13 0
-31 5 -39 10 -23 15 5 30 58 30 38 0 42 2 42 24 0 45 -21 51 -185 51 l-152 0
14 21 c21 33 -3 47 -58 35 l-44 -10 23 20 c13 10 43 24 65 31 23 6 47 18 54
25 18 23 229 20 303 -5 19 -6 62 -19 95 -29 44 -13 76 -32 127 -75 59 -52 88
-85 88 -102 0 -3 -29 8 -65 24 -46 21 -67 26 -69 17 -2 -6 -13 -55 -26 -107
-12 -52 -25 -100 -27 -106 -3 -8 26 -14 89 -19 131 -9 158 -19 158 -57 0 -34
-20 -118 -54 -228 -13 -41 -32 -102 -41 -135 -10 -33 -21 -64 -26 -70 -5 -5
-9 -13 -9 -18 0 -18 30 16 77 86 25 40 57 83 70 97 13 14 37 54 54 90 20 43
41 71 59 82 16 9 46 43 66 75 21 32 56 81 79 108 40 48 105 141 105 150 0 3
-18 17 -40 31 -40 26 -41 27 -61 8 -21 -19 -22 -19 -15 4 10 31 -6 48 -65 67
-28 10 -48 19 -46 22 3 2 36 -8 74 -22 37 -15 81 -31 97 -37 15 -6 40 -24 55
-39 l26 -28 60 20 c33 11 70 17 82 14 28 -7 53 3 53 21 0 8 -15 28 -32 45
l-33 31 45 -7 c79 -12 95 -11 95 5 0 19 -43 39 -93 44 -22 3 -93 20 -158 39
-66 20 -128 38 -139 40 l-20 5 20 1 c11 0 60 -8 109 -19 49 -11 92 -18 94 -15
5 4 -94 52 -176 84 -18 8 -42 27 -53 42 l-20 29 21 0 c26 0 37 27 19 45 -8 8
-54 21 -104 30 -49 9 -137 28 -195 41 -214 50 -536 65 -945 43z m382 -156
c-20 -2 -52 -2 -70 0 -17 2 0 4 38 4 39 0 53 -2 32 -4z m-174 -10 c-7 -2 -19
-2 -25 0 -7 3 -2 5 12 5 14 0 19 -2 13 -5z m804 -13 c31 -11 62 -25 67 -31 8
-9 8 -10 0 -6 -7 4 -56 18 -110 31 -84 21 -92 25 -56 25 23 1 68 -8 99 -19z
m-904 3 c-7 -2 -19 -2 -25 0 -7 3 -2 5 12 5 14 0 19 -2 13 -5z m362 -33 c142
-21 263 -46 285 -60 33 -20 -5 -20 -107 -1 -319 61 -630 73 -843 34 -110 -21
-294 -73 -376 -108 -22 -9 -34 -12 -29 -6 12 12 166 76 258 107 63 21 200 50
272 56 89 9 424 -6 540 -22z m-576 -40 c-53 -10 -107 -21 -120 -25 -13 -4 -21
-4 -16 0 10 12 156 43 197 43 19 0 -8 -8 -61 -18z m1256 -10 l20 -9 -20 1
c-11 0 -31 4 -45 8 l-25 8 25 0 c14 0 34 -3 45 -8z m-335 -30 c0 -5 -7 -10
-15 -10 -8 0 -15 5 -15 10 0 6 7 10 15 10 8 0 15 -4 15 -10z m261 -105 c19 -8
27 -14 19 -14 -14 0 -72 28 -59 29 4 0 22 -7 40 -15z m326 -49 c24 -16 40 -32
37 -37 -3 -5 -27 -9 -53 -9 -42 0 -49 3 -60 26 l-12 26 38 -6 38 -7 -25 23
c-30 27 -21 23 37 -16z m-291 -41 c24 -37 28 -113 9 -177 -9 -32 -20 -58 -25
-58 -4 0 -10 42 -12 93 -2 71 -8 102 -25 135 -13 23 -23 44 -23 47 0 12 63
-21 76 -40z m-1906 7 c0 -4 -10 -13 -22 -21 -23 -14 -23 -14 -4 8 20 22 26 25
26 13z m1240 -56 c0 -3 -4 -8 -10 -11 -5 -3 -10 -1 -10 4 0 6 5 11 10 11 6 0
10 -2 10 -4z"/>
<path d="M13340 16006 c-42 -11 -133 -55 -118 -56 11 0 178 61 178 66 0 6 -9
4 -60 -10z"/>
<path d="M13155 15908 c-32 -24 -45 -38 -45 -51 0 -4 10 1 22 13 12 11 25 20
30 20 4 0 12 9 18 20 13 25 12 25 -25 -2z"/>
<path d="M12955 15746 c-58 -57 -105 -109 -105 -116 0 -7 33 19 73 58 39 38
88 83 107 98 37 30 50 44 50 57 0 21 -30 -3 -125 -97z"/>
<path d="M16000 15303 c0 -20 42 -148 51 -158 7 -6 13 -5 19 5 7 11 10 7 15
-16 10 -43 15 -57 19 -53 8 7 -14 104 -24 107 -6 2 -10 8 -10 13 0 6 5 7 12 3
8 -5 9 -2 5 10 -4 10 -7 26 -7 37 0 13 -7 19 -24 19 -14 0 -32 10 -40 22 -9
12 -16 17 -16 11z"/>
<path d="M13325 15149 c-44 -11 -84 -24 -90 -30 -7 -8 -4 -10 10 -6 83 23 139
17 94 -10 -18 -11 -19 -13 -4 -8 54 17 145 35 185 36 l45 1 -32 10 c-18 6 -33
15 -33 19 0 15 -90 8 -175 -12z"/>
<path d="M13624 15145 c-10 -25 4 -31 73 -32 l68 -1 -50 23 c-58 28 -83 31
-91 10z"/>
<path d="M13840 15091 c0 -5 5 -13 10 -16 6 -3 10 -2 10 4 0 5 -4 13 -10 16
-5 3 -10 2 -10 -4z"/>
<path d="M13275 15070 c-3 -6 1 -7 9 -4 18 7 21 14 7 14 -6 0 -13 -4 -16 -10z"/>
<path d="M16100 15034 c0 -5 7 -19 15 -30 8 -10 15 -14 15 -8 0 5 -7 19 -15
30 -8 10 -15 14 -15 8z"/>
<path d="M13355 14980 c-129 -34 -145 -46 -145 -111 0 -24 -11 -44 -42 -78
-35 -37 -40 -46 -25 -49 9 -2 47 13 82 33 45 25 65 32 65 22 0 -8 -27 -84 -59
-169 -33 -86 -64 -178 -69 -204 -5 -27 -17 -66 -26 -87 -20 -46 -9 -54 58 -39
47 10 56 4 56 -35 0 -12 -3 -13 -14 -4 -20 17 -24 5 -24 -71 0 -62 3 -70 35
-108 40 -46 183 -275 234 -374 19 -36 40 -66 47 -66 6 0 12 2 12 5 0 19 -57
139 -140 295 -54 102 -102 194 -106 205 l-7 20 16 -20 c13 -16 25 -8 15 9 -2
2 11 16 27 30 l30 26 11 -67 c11 -61 11 -50 7 97 -5 190 8 282 54 377 25 49
35 60 69 72 37 13 214 29 214 19 0 -3 -9 -40 -21 -84 -12 -49 -22 -128 -26
-209 l-6 -130 39 39 c47 46 78 59 121 51 20 -3 33 -2 33 4 0 21 45 51 76 51
24 0 39 -8 58 -31 14 -17 26 -35 26 -40 0 -12 77 -12 85 0 3 5 -7 39 -22 75
-15 39 -30 61 -34 55 -8 -14 -39 -5 -39 11 0 9 14 14 33 11 11 -2 8 15 -13 69
-17 43 -17 50 -5 50 29 0 112 -49 140 -81 24 -29 26 -38 19 -73 -16 -90 -14
-96 41 -115 59 -20 77 -50 101 -169 9 -42 20 -84 26 -92 13 -22 -1 96 -18 145
-7 22 -9 44 -5 48 16 16 -39 171 -80 229 -25 34 -24 38 7 38 23 0 25 3 20 25
-5 18 -2 27 10 32 13 5 10 10 -15 25 -17 11 -31 26 -31 33 0 17 -52 62 -153
133 l-82 57 38 3 c20 2 37 7 37 12 0 16 -183 68 -336 94 -180 31 -299 33 -399
6z m275 -189 c-8 -5 -38 -11 -66 -15 -28 -3 -69 -15 -92 -26 -50 -24 -65 -26
-32 -3 29 20 133 51 175 52 21 0 26 -2 15 -8z m450 -35 c0 -3 -18 3 -40 11
-22 9 -40 20 -40 25 0 4 18 -1 40 -12 22 -11 40 -22 40 -24z m-35 -36 c3 -6
-1 -7 -9 -4 -18 7 -21 14 -7 14 6 0 13 -4 16 -10z m-41 -86 c9 -8 16 -24 16
-34 0 -10 3 -26 7 -36 5 -13 3 -16 -9 -11 -22 8 -88 -14 -82 -27 3 -6 -1 -3
-9 6 -13 16 -15 16 -37 -7 -24 -25 -44 -18 -33 12 7 17 2 16 -33 -2 -15 -8
-30 -13 -32 -11 -11 12 32 78 65 100 45 30 122 35 147 10z"/>
<path d="M16170 14933 c0 -21 37 -98 53 -112 14 -11 16 -10 13 6 -5 23 -66
122 -66 106z"/>
<path d="M13741 14124 c20 -57 102 -185 139 -219 32 -29 23 -3 -27 75 -26 40
-54 100 -63 134 -15 53 -20 61 -43 64 l-26 3 20 -57z"/>
<path d="M12008 13901 c-11 -49 -10 -67 3 -54 6 6 9 28 7 49 l-3 39 -7 -34z"/>
<path d="M13252 13825 c0 -16 2 -22 5 -12 2 9 2 23 0 30 -3 6 -5 -1 -5 -18z"/>
<path d="M13540 13341 c0 -146 21 -341 45 -426 14 -47 14 -48 10 -10 -3 22 -8
160 -11 308 -6 251 -8 267 -25 267 -18 0 -19 -10 -19 -139z"/>
<path d="M22363 13393 c-2 -31 1 -43 6 -33 14 23 17 73 6 77 -6 2 -11 -17 -12
-44z"/>
<path d="M15106 12533 c-4 -8 -13 -13 -21 -9 -9 3 -15 0 -15 -8 0 -18 87 -136
100 -136 16 0 12 15 -11 44 -13 17 -19 36 -16 51 2 15 0 25 -7 25 -7 0 -7 3 1
8 9 6 8 12 -6 24 -17 15 -20 15 -25 1z"/>
<path d="M15175 12530 c-13 -5 -14 -9 -5 -9 8 0 24 4 35 9 13 5 14 9 5 9 -8 0
-24 -4 -35 -9z"/>
<path d="M18083 12418 c-34 -35 -45 -56 -58 -112 -8 -38 -14 -71 -12 -72 2 -2
33 29 68 69 96 108 94 104 81 132 -16 35 -32 31 -79 -17z"/>
<path d="M19386 12345 c-3 -9 -6 -22 -5 -28 0 -7 5 -1 10 12 5 13 8 26 5 28
-2 2 -6 -3 -10 -12z"/>
<path d="M17841 12151 c-103 -122 -303 -319 -450 -442 -351 -295 -1000 -731
-1263 -849 -54 -24 -96 -45 -94 -47 4 -4 151 57 286 118 98 45 490 281 611
368 23 17 45 31 49 31 12 0 99 -154 135 -240 35 -83 121 -369 144 -480 6 -30
24 -156 41 -279 21 -169 26 -230 18 -245 -16 -31 -122 -170 -199 -261 -86
-103 -226 -238 -358 -345 -57 -47 -116 -96 -130 -109 l-26 -23 30 17 c119 70
302 224 526 443 l177 172 15 -107 16 -108 -5 140 c-4 137 -32 451 -54 610 -37
261 -136 609 -230 808 l-28 58 152 113 c197 147 259 199 446 371 255 236 260
241 275 321 7 38 12 70 11 72 -2 1 -44 -47 -95 -107z"/>
<path d="M19656 10077 c-94 -183 -191 -365 -218 -406 -26 -40 -48 -80 -48 -87
0 -8 -34 -82 -75 -164 -41 -82 -102 -214 -136 -292 -33 -79 -105 -226 -159
-328 -54 -102 -117 -223 -140 -270 -44 -89 -225 -377 -383 -611 -207 -306
-451 -580 -717 -804 -80 -67 -156 -134 -169 -149 -14 -14 -59 -46 -100 -70
-42 -24 -123 -70 -181 -103 -259 -148 -780 -404 -1040 -510 -299 -123 -801
-271 -1165 -344 -115 -23 -181 -31 -280 -32 -228 -3 -294 20 -426 152 -83 84
-122 154 -145 261 -32 151 -12 265 67 382 52 78 222 246 303 301 146 98 376
296 556 477 227 229 573 644 745 893 67 98 67 98 89 79 42 -36 152 -89 163
-78 2 2 -35 28 -82 57 -56 36 -84 59 -82 69 2 8 56 101 119 205 313 519 341
561 384 590 l26 17 -32 20 c-43 25 -85 18 -142 -25 -24 -18 -90 -62 -148 -97
-57 -36 -125 -86 -150 -112 -43 -45 -51 -48 -205 -93 -88 -26 -162 -49 -165
-52 -15 -16 196 34 266 63 66 28 72 39 -159 -326 -72 -113 -160 -250 -197
-305 -37 -55 -85 -132 -108 -172 -38 -67 -157 -231 -217 -298 -15 -16 -48 -57
-73 -90 -99 -129 -185 -225 -308 -345 -230 -224 -381 -339 -554 -423 -793
-382 -936 -467 -1274 -762 -141 -122 -485 -476 -559 -574 -49 -66 -56 -100 -9
-45 206 240 346 384 455 467 180 139 477 337 505 337 5 0 20 10 33 23 24 23
404 254 487 296 59 30 275 111 281 106 2 -3 -17 -32 -43 -66 -104 -134 -146
-243 -146 -379 0 -48 -2 -89 -5 -92 -3 -3 -29 1 -57 9 -72 18 -88 17 -88 -8 0
-24 -27 -116 -43 -144 -12 -22 -25 -84 -34 -155 -3 -25 -10 -51 -15 -57 -7 -9
-7 -13 1 -13 15 0 14 -36 -1 -44 -7 -3 -26 -14 -43 -24 -27 -17 -31 -17 -42
-3 -10 13 -12 9 -13 -27 0 -38 -5 -49 -37 -78 -21 -18 -32 -34 -25 -34 18 0
15 -24 -7 -62 -11 -18 -25 -54 -31 -80 l-12 -47 -29 21 c-24 18 -31 19 -44 8
-11 -9 -15 -24 -13 -41 3 -16 2 -26 -2 -24 -3 2 -32 42 -64 90 -33 47 -61 84
-63 82 -2 -3 22 -49 52 -103 95 -167 169 -254 337 -395 88 -74 133 -105 174
-119 31 -11 60 -18 64 -15 4 3 47 -4 96 -15 130 -28 330 -59 399 -62 33 -2 62
-6 65 -10 3 -3 42 -9 88 -13 82 -8 82 -8 82 16 0 13 -7 36 -14 52 -14 26 -14
27 10 27 52 0 13 41 -43 45 -6 0 -15 4 -20 9 -4 5 -3 6 3 3 14 -8 27 20 14 28
-6 4 -10 2 -10 -3 0 -5 -42 -12 -92 -15 -51 -4 -118 -13 -149 -22 -143 -39
-308 -35 -376 8 -38 25 -158 55 -170 44 -3 -4 -20 3 -37 15 -51 36 -126 101
-122 105 8 9 81 25 106 24 13 -1 29 -6 34 -11 13 -13 52 -13 77 1 39 20 121
15 174 -11 35 -18 74 -27 130 -30 77 -6 79 -6 50 -19 l-30 -13 60 -28 c56 -27
58 -29 28 -29 -18 -1 -33 -6 -33 -12 0 -8 41 -9 148 -4 217 10 551 52 986 125
98 17 181 29 183 27 3 -4 -97 -34 -282 -86 -38 -11 -61 -20 -50 -21 11 -2 23
-2 28 -1 4 0 7 -6 7 -14 0 -16 18 -16 98 1 30 6 28 -10 -5 -25 -19 -9 -23 -15
-15 -23 9 -9 15 -7 26 8 11 14 17 16 27 7 12 -12 75 -7 94 7 6 4 28 11 50 15
108 19 424 159 483 214 34 31 62 42 207 81 185 49 176 46 138 54 -21 5 -70 -1
-145 -18 -62 -14 -134 -28 -161 -31 -26 -3 -81 -17 -123 -31 -41 -14 -77 -25
-79 -23 -2 3 41 22 96 43 83 32 97 41 87 53 -10 12 -7 13 17 7 28 -7 28 -7 12
17 -25 34 -22 39 26 39 38 0 42 2 42 25 0 14 -2 25 -5 25 -3 0 -82 -23 -174
-51 -169 -51 -206 -56 -214 -30 -3 10 0 12 13 7 13 -5 16 -2 11 10 -3 8 -6 18
-6 20 0 13 -67 0 -140 -26 -101 -36 -117 -33 -23 5 37 15 111 47 164 71 53 24
103 42 112 39 20 -8 115 36 275 129 87 50 138 74 145 68 7 -5 23 -12 36 -15
29 -7 161 18 210 39 97 44 241 117 237 121 -2 2 -93 -7 -203 -21 -283 -36
-591 -68 -605 -64 -7 3 17 12 53 22 106 30 380 132 501 186 62 29 162 72 221
96 135 55 311 144 445 226 56 35 139 85 185 111 45 26 96 59 112 73 l30 26
-30 -18 c-48 -29 -153 -87 -256 -142 l-97 -52 29 91 c33 104 45 125 34 59 -5
-31 -4 -42 3 -35 13 12 19 66 10 81 -9 14 2 54 14 54 5 0 6 -9 3 -20 -4 -11
-2 -20 4 -20 6 0 11 4 11 10 0 5 20 38 45 73 31 44 71 83 127 125 225 163 555
475 712 672 333 417 547 755 830 1314 81 160 118 217 130 197 3 -5 24 -5 47
-1 37 7 40 6 36 -12 -4 -15 -3 -17 8 -8 23 19 23 -3 -1 -75 -12 -38 -23 -81
-23 -94 -1 -13 -60 -139 -131 -280 l-130 -256 -66 -34 c-135 -70 -238 -229
-329 -511 -32 -96 -77 -227 -100 -290 -23 -63 -60 -164 -81 -225 -21 -60 -41
-112 -44 -115 -4 -3 -9 -24 -12 -46 -5 -38 -38 -124 -147 -387 -23 -55 -83
-185 -135 -290 -52 -106 -120 -250 -151 -322 -32 -71 -133 -282 -226 -467 -93
-185 -174 -349 -179 -364 -10 -24 -9 -26 5 -14 9 8 32 37 52 67 19 29 71 85
116 124 69 61 82 69 87 53 6 -17 9 -16 31 7 43 45 89 101 89 108 0 4 23 18 51
30 27 13 61 35 75 49 13 15 24 21 24 15 0 -7 -4 -15 -10 -18 -12 -7 -13 -45
-2 -45 29 0 111 133 177 285 30 70 63 139 74 153 19 28 73 147 86 192 4 14 20
52 35 85 15 33 37 85 50 115 12 30 33 78 46 107 28 61 28 63 9 63 -18 0 -40
-42 -49 -92 -4 -20 -10 -38 -15 -40 -4 -2 -20 -37 -36 -78 -41 -108 -106 -235
-223 -434 -37 -63 -47 -74 -53 -60 -13 32 -10 44 9 44 25 0 31 7 25 30 -4 15
-9 17 -23 10 -10 -6 -21 -10 -24 -10 -16 0 -2 48 38 132 25 51 45 96 46 100 1
4 21 56 46 115 59 141 249 621 259 653 4 14 13 39 21 55 7 17 38 98 69 180 72
191 209 534 240 603 14 28 25 55 26 60 1 4 13 24 25 44 13 21 24 41 24 46 0 5
8 16 18 26 11 9 24 34 31 56 7 23 21 44 34 51 12 6 45 35 73 65 47 50 83 71
70 42 -2 -7 -10 -30 -17 -50 -7 -21 -20 -40 -29 -43 -28 -9 -57 -59 -62 -106
-3 -24 -8 -53 -12 -64 -7 -18 -6 -18 6 -3 13 15 15 15 26 0 7 -9 10 -12 7 -5
-3 6 -2 13 2 15 12 5 39 53 80 140 19 43 39 75 44 73 4 -3 12 2 17 11 6 11 28
20 61 24 28 3 51 6 51 6 0 -4 -51 -140 -64 -170 -27 -65 -3 -60 33 7 55 104
94 157 111 150 8 -4 25 -7 37 -7 18 -1 21 -5 16 -31 -3 -16 -12 -42 -19 -56
-15 -29 -10 -39 18 -39 11 0 32 -7 48 -15 21 -11 30 -12 30 -4 0 6 12 -1 28
-17 25 -27 27 -35 25 -105 -2 -126 -26 -179 -95 -213 -23 -12 -42 -44 -74
-126 -9 -25 -30 -73 -46 -108 -15 -34 -28 -65 -28 -68 0 -3 -8 -24 -18 -47
-11 -23 -38 -89 -61 -147 -24 -58 -52 -127 -63 -154 -16 -40 -17 -50 -6 -57
20 -13 32 6 86 126 27 61 60 135 74 165 14 30 47 102 73 160 27 58 84 175 127
260 78 153 108 201 93 150 -4 -14 -7 -27 -7 -30 -1 -86 7 -113 17 -54 9 57 18
89 32 111 13 19 12 25 -1 45 -21 32 -6 52 36 50 50 -2 131 -12 148 -19 8 -4
33 -11 55 -17 31 -9 41 -17 43 -35 2 -13 -2 -28 -10 -32 -21 -14 -64 -10 -77
5 -7 8 -30 17 -52 21 -46 8 -69 -6 -69 -41 0 -20 5 -24 33 -24 18 0 42 -6 53
-14 10 -8 29 -12 42 -9 46 11 99 -74 56 -91 -27 -11 -54 -7 -60 9 -4 8 -18 15
-33 15 -15 0 -31 4 -36 9 -6 4 -25 11 -43 14 -35 7 -41 0 -57 -70 -6 -28 -4
-33 13 -33 10 0 22 -3 25 -7 4 -4 31 -6 60 -4 61 3 110 -26 105 -62 -4 -30
-33 -45 -58 -29 -11 6 -34 12 -52 12 -31 0 -87 14 -120 31 -10 5 -25 9 -33 9
-22 0 -40 43 -27 66 5 11 6 28 1 39 -9 23 -9 23 -14 -29 -3 -22 -10 -43 -16
-47 -7 -4 -9 -17 -5 -33 5 -20 3 -24 -9 -20 -8 4 -15 2 -15 -4 0 -6 5 -12 11
-14 7 -2 7 -12 0 -31 -8 -22 -8 -27 4 -27 12 0 9 -13 -12 -57 -15 -32 -26 -73
-26 -91 1 -18 -5 -45 -13 -60 -7 -15 -14 -30 -14 -34 0 -4 -18 -45 -40 -92
-45 -95 -48 -112 -20 -119 44 -11 62 4 101 87 23 49 38 72 38 59 1 -13 -12
-49 -27 -81 l-29 -59 41 -2 c23 0 106 -1 186 -1 136 0 149 -1 205 -26 107 -48
127 -59 136 -77 6 -10 20 -22 32 -28 53 -24 69 -39 94 -88 15 -28 31 -51 36
-51 5 0 6 25 1 63 -5 34 -8 220 -6 413 l3 350 -33 -4 c-18 -2 -52 3 -75 11
l-41 14 -15 -37 c-8 -20 -12 -51 -9 -68 5 -38 -16 -51 -54 -34 -17 9 -24 20
-24 41 0 16 4 32 9 35 4 3 11 35 14 72 3 42 12 76 24 93 10 14 24 45 31 67 11
38 15 42 54 47 41 6 76 -6 119 -41 15 -11 17 -8 22 30 17 126 19 174 5 185
-16 13 -203 79 -343 121 -264 80 -509 122 -705 122 -96 0 -140 4 -142 12 -3 8
-9 8 -22 1 -19 -10 -56 -6 -56 6 0 4 32 67 70 141 68 130 77 135 38 21 -10
-30 -16 -56 -14 -58 5 -5 86 199 86 217 0 9 16 49 35 89 48 99 107 268 199
561 96 306 302 938 327 1004 10 27 18 51 16 52 -1 1 -78 -147 -171 -329z
m-426 -1783 c0 -2 -7 -4 -15 -4 -8 0 -15 4 -15 10 0 5 7 7 15 4 8 -4 15 -8 15
-10z m-371 -320 c-22 -49 -57 -127 -75 -174 -19 -47 -39 -94 -45 -105 -5 -11
-13 -33 -18 -50 -5 -16 -44 -122 -86 -235 -142 -376 -231 -606 -300 -775 -73
-180 -104 -244 -104 -222 -1 10 5 30 13 45 7 15 19 52 26 82 13 59 68 222 93
280 8 19 27 69 42 110 31 84 122 304 138 335 6 11 12 22 13 25 5 23 39 89 54
105 9 11 20 37 23 58 3 21 29 91 57 155 28 64 55 131 59 147 9 36 143 317 148
311 2 -2 -15 -43 -38 -92z m-4730 -1831 c1 -13 -3 -23 -9 -23 -5 0 -10 19 -9
43 0 32 2 37 9 22 5 -11 9 -30 9 -42z m116 -128 c26 -33 63 -75 83 -93 56 -49
153 -101 205 -108 26 -4 45 -12 44 -18 -1 -6 6 -10 16 -8 10 2 66 -4 125 -13
90 -13 136 -14 282 -5 262 15 509 48 749 101 73 16 135 28 137 26 8 -8 -522
-248 -646 -292 -31 -12 -35 -11 -45 9 -13 25 -58 25 -107 0 -69 -36 -419 -15
-510 31 -44 21 -66 20 -37 -3 l22 -19 -43 -7 c-24 -4 -46 -3 -49 2 -3 4 -20
14 -38 21 -18 7 -38 19 -44 27 -9 12 -4 14 35 14 30 0 45 4 41 10 -4 6 -10 8
-15 5 -12 -7 -76 55 -154 149 -46 56 -70 94 -80 130 -19 71 -28 112 -23 106 2
-3 26 -32 52 -65z m3912 13 c-3 -8 -6 -5 -6 6 -1 11 2 17 5 13 3 -3 4 -12 1
-19z m-3607 -753 c23 -3 93 -21 130 -32 20 -7 -14 -21 -50 -22 -20 -1 -22 1
-10 9 12 8 9 10 -12 10 -14 0 -48 4 -75 10 -26 5 -69 12 -96 15 -26 4 -45 10
-42 15 5 8 84 5 155 -5z"/>
<path d="M22326 10280 c-8 -81 -47 -391 -71 -560 -16 -117 -19 -179 -5 -120 5
19 11 60 15 90 3 30 8 64 11 75 2 11 8 58 13 105 6 47 19 165 31 264 12 98 20
188 18 200 -2 11 -7 -13 -12 -54z"/>
<path d="M15530 9972 c-26 -105 -28 -116 -50 -317 -11 -100 -11 -333 -1 -380
l7 -30 7 40 c19 100 47 312 52 392 18 303 13 405 -15 295z"/>
<path d="M19295 9519 c-4 -6 -5 -12 -2 -15 2 -3 7 2 10 11 7 17 1 20 -8 4z"/>
<path d="M19223 9446 c-56 -63 -169 -160 -300 -259 -92 -68 -119 -94 -65 -60
133 84 381 297 413 356 17 30 2 19 -48 -37z"/>
<path d="M19422 8045 c-7 -14 -12 -34 -12 -43 1 -24 39 26 40 51 0 25 -15 21
-28 -8z"/>
<path d="M19454 8003 c-14 -32 -31 -70 -38 -84 -8 -15 -11 -32 -7 -38 4 -7 25
20 50 63 52 91 60 116 37 116 -11 0 -26 -20 -42 -57z"/>
<path d="M20476 7976 c-3 -45 -6 -121 -6 -169 0 -80 1 -87 16 -73 22 22 95 24
145 5 23 -9 27 -18 33 -66 10 -90 -17 -188 -67 -240 -41 -43 -96 -69 -122 -59
-13 4 -15 -14 -15 -117 1 -218 19 -468 45 -626 34 -201 35 -201 79 -191 50 11
62 -6 25 -37 -16 -14 -34 -21 -40 -17 -19 11 -3 -76 22 -129 21 -43 25 -46 73
-53 60 -8 232 -7 247 2 6 3 14 16 19 29 11 30 48 23 56 -10 3 -13 16 -26 28
-29 34 -8 242 -26 308 -26 l57 0 12 40 c10 32 8 77 -10 247 -49 459 -60 587
-70 792 -6 117 -13 216 -16 219 -3 3 -5 -8 -5 -24 -1 -28 -1 -28 -16 -9 -144
195 -421 421 -701 573 l-90 49 -7 -81z m386 -398 c4 -12 -15 -76 -33 -109 -12
-23 -3 -28 63 -34 70 -7 88 -13 88 -31 0 -12 -12 -15 -62 -13 l-63 3 -3 -33
c-2 -18 1 -38 6 -44 21 -25 50 -114 42 -127 -15 -23 -39 -2 -54 48 -8 27 -21
62 -29 78 -8 16 -12 34 -10 41 2 6 0 14 -6 17 -9 6 -51 -74 -51 -97 0 -17 -32
-47 -50 -47 -21 0 -35 29 -20 44 5 5 10 16 10 24 0 7 7 20 15 28 8 9 15 24 15
35 0 10 13 41 30 67 16 27 33 64 36 83 10 54 65 102 76 67z m318 -257 c0 -33
-14 -71 -25 -67 -14 5 -65 -61 -65 -83 0 -7 7 -19 16 -28 22 -23 2 -41 -29
-24 -20 11 -27 8 -70 -34 -27 -25 -54 -44 -60 -42 -24 8 -17 29 22 69 23 22
41 46 41 53 0 10 18 32 114 138 24 26 56 37 56 18z m-391 -878 c13 -10 -30
-32 -75 -38 -61 -8 -80 8 -45 36 18 14 33 17 69 12 26 -3 49 -8 51 -10z"/>
<path d="M20198 7849 c-26 -45 -22 -57 20 -68 101 -29 134 7 62 67 -48 40 -60
40 -82 1z"/>
<path d="M19390 7849 c0 -5 5 -7 10 -4 6 3 10 8 10 11 0 2 -4 4 -10 4 -5 0
-10 -5 -10 -11z"/>
<path d="M18960 7832 c0 -12 -8 -39 -19 -60 -16 -32 -37 -122 -26 -111 2 3 18
39 35 82 23 58 28 82 21 95 -9 15 -10 14 -11 -6z"/>
<path d="M20505 7647 c-26 -46 -29 -61 -29 -130 1 -103 12 -113 64 -57 22 24
43 55 46 70 2 14 9 39 14 56 23 71 10 114 -34 114 -27 0 -35 -7 -61 -53z"/>
<path d="M21292 7655 c0 -16 2 -22 5 -12 2 9 2 23 0 30 -3 6 -5 -1 -5 -18z"/>
<path d="M18875 7600 c-3 -5 -1 -10 4 -10 6 0 11 5 11 10 0 6 -2 10 -4 10 -3
0 -8 -4 -11 -10z"/>
<path d="M21292 7585 c0 -16 2 -22 5 -12 2 9 2 23 0 30 -3 6 -5 -1 -5 -18z"/>
<path d="M18853 7539 c-7 -18 -11 -35 -8 -37 6 -6 27 48 23 60 -2 5 -9 -6 -15
-23z"/>
<path d="M18321 7235 c-33 -35 -201 -169 -231 -185 -30 -15 -156 -114 -189
-148 -13 -13 -66 -56 -118 -94 -52 -39 -92 -72 -89 -75 3 -3 63 37 133 88 70
51 169 122 218 158 50 35 115 83 145 105 30 22 83 68 117 104 35 35 67 61 73
57 5 -3 10 -1 10 4 0 20 -45 11 -69 -14z"/>
<path d="M19770 7070 c-7 -4 -33 -8 -59 -9 -25 0 -68 -3 -96 -5 -27 -2 -78 -5
-112 -5 -58 -1 -64 -3 -76 -28 -8 -16 -17 -39 -20 -54 -6 -23 -4 -25 25 -23
18 1 38 11 46 21 13 17 14 16 7 -5 -6 -21 -5 -23 13 -13 23 12 82 15 83 4 0
-5 2 -18 3 -29 4 -34 -12 -64 -34 -64 -26 0 -25 -10 6 -74 l26 -53 -25 -39
c-14 -22 -30 -55 -36 -75 -7 -21 -41 -69 -80 -110 -70 -75 -77 -95 -36 -105
12 -3 27 -16 34 -30 6 -13 16 -24 22 -24 7 0 54 -21 104 -46 86 -43 98 -46
206 -54 63 -4 142 -16 177 -25 57 -15 133 -18 262 -12 25 1 73 -2 108 -7 l62
-8 0 34 c0 18 -7 74 -15 123 -8 50 -20 160 -26 245 -12 165 -15 174 -81 245
-15 16 -35 44 -45 63 -13 24 -29 36 -58 44 -22 6 -45 17 -51 25 -6 7 -25 18
-43 24 -17 6 -31 15 -31 20 0 5 -17 17 -37 27 -29 15 -54 18 -100 16 -34 -2
-73 0 -86 5 -13 5 -29 6 -37 1z"/>
<path d="M18668 6972 c-7 -18 -16 -32 -21 -32 -4 0 -5 -4 -2 -10 3 -5 1 -10
-5 -10 -6 0 -8 -5 -4 -11 3 -6 2 -14 -3 -18 -9 -6 -27 -42 -69 -136 -9 -22
-19 -44 -22 -49 -2 -4 6 -1 19 8 13 8 36 43 51 78 45 107 78 201 73 207 -3 2
-11 -10 -17 -27z"/>
<path d="M21502 6950 c0 -14 2 -19 5 -12 2 6 2 18 0 25 -3 6 -5 1 -5 -13z"/>
<path d="M19177 6928 c-27 -21 -67 -107 -74 -157 -4 -33 -3 -43 5 -36 10 9 94
205 88 205 -1 0 -10 -6 -19 -12z"/>
<path d="M21512 6875 c0 -16 2 -22 5 -12 2 9 2 23 0 30 -3 6 -5 -1 -5 -18z"/>
<path d="M19359 6845 c-17 -45 -17 -46 5 -39 28 8 34 15 36 39 6 61 -19 61
-41 0z"/>
<path d="M21521 6822 c-2 -62 81 -497 109 -565 18 -45 9 12 -25 164 -19 85
-44 210 -55 279 -23 135 -28 157 -29 122z"/>
<path d="M15337 6633 c-46 -69 -84 -108 -149 -156 -20 -15 -42 -32 -50 -39 -7
-7 -33 -31 -58 -53 -25 -21 -54 -51 -65 -65 -11 -14 18 8 65 49 47 40 131 105
188 143 95 66 142 105 92 78 -35 -18 -35 -5 -1 51 48 76 30 71 -22 -8z"/>
<path d="M19256 6583 c-34 -81 -39 -113 -17 -113 5 0 16 17 26 38 71 155 73
162 47 162 -16 0 -28 -19 -56 -87z"/>
<path d="M18970 6472 c-23 -59 -46 -115 -51 -124 -5 -10 -13 -37 -19 -61 -5
-24 -12 -52 -16 -63 -5 -16 -4 -15 10 3 19 26 121 270 131 312 3 16 2 32 -3
35 -6 3 -29 -42 -52 -102z"/>
<path d="M18583 6373 c-7 -2 -13 -10 -13 -16 0 -12 -53 -119 -174 -354 -60
-115 -87 -195 -60 -172 31 25 130 222 189 374 12 33 30 74 39 90 9 17 16 37
16 46 0 8 5 20 12 27 13 13 11 14 -9 5z"/>
<path d="M19172 6368 c-15 -15 -16 -48 -1 -48 5 0 7 5 4 10 -3 6 -2 10 3 10
13 0 23 28 13 34 -4 3 -13 0 -19 -6z"/>
<path d="M14876 6190 c-88 -92 -156 -186 -156 -217 0 -29 22 -8 73 70 45 69
103 145 175 230 8 9 13 17 10 17 -3 0 -49 -45 -102 -100z"/>
<path d="M19372 6243 c-28 -76 -31 -93 -17 -93 8 0 26 18 40 40 26 40 40 49
47 29 2 -7 16 -13 32 -15 33 -3 31 19 -3 24 -12 2 -31 12 -42 23 -26 26 -45
24 -57 -8z"/>
<path d="M19515 6200 c3 -5 14 -10 23 -10 15 0 15 2 2 10 -20 13 -33 13 -25 0z"/>
<path d="M18180 6105 c0 -8 7 -15 15 -15 9 0 12 6 9 15 -4 8 -10 15 -15 15 -5
0 -9 -7 -9 -15z"/>
<path d="M16302 5671 c-11 -7 -11 -9 2 -14 10 -4 16 -1 16 8 0 17 -1 17 -18 6z"/>
<path d="M12397 5523 c-75 -114 -109 -177 -199 -368 -98 -207 -155 -405 -164
-564 -2 -47 -9 -130 -14 -185 -14 -140 -13 -260 5 -341 8 -38 28 -140 46 -225
33 -168 79 -325 110 -379 11 -18 31 -60 45 -93 27 -64 113 -208 225 -374 38
-57 69 -107 69 -113 0 -5 -12 -17 -27 -27 -16 -10 -73 -61 -128 -114 -108
-103 -229 -210 -285 -251 -19 -15 -158 -88 -307 -164 -150 -75 -273 -141 -273
-146 0 -25 -80 -42 -234 -50 -88 -4 -163 -12 -169 -18 -8 -8 -1 -11 24 -11 66
1 386 30 594 54 446 52 533 66 546 88 3 5 39 11 80 13 85 4 386 55 504 86 44
11 91 21 104 21 19 0 21 2 10 10 -10 7 0 8 31 4 25 -3 37 -2 26 2 -15 7 -11
10 20 20 27 8 40 8 45 1 9 -16 84 -3 259 46 85 23 205 56 265 73 330 91 762
228 751 239 -2 2 -99 -24 -215 -58 -208 -61 -213 -62 -267 -50 -30 7 -67 23
-82 36 -23 20 -25 26 -15 46 24 50 23 68 -8 90 -25 18 -29 26 -24 49 7 34 0
39 -62 47 -38 4 -57 1 -86 -16 -45 -25 -65 -26 -163 -6 -74 16 -294 100 -341
131 -24 15 -59 81 -49 91 3 3 40 -3 83 -15 43 -11 141 -36 218 -57 263 -69
665 -145 975 -184 303 -38 254 -42 520 44 399 129 598 172 1014 220 322 38
406 45 654 54 123 5 226 12 230 16 4 3 0 10 -7 14 -22 14 -6 69 52 183 65 126
194 356 217 383 9 11 22 33 30 50 40 82 126 134 275 168 l60 14 -3 39 c-4 43
-18 108 -31 139 -26 62 -50 546 -29 605 19 55 -52 -47 -126 -180 -86 -156
-162 -321 -200 -435 -32 -99 -57 -224 -49 -253 3 -15 1 -22 -8 -22 -8 0 -54
-5 -104 -10 -109 -12 -593 -47 -765 -56 -94 -5 -136 -11 -170 -27 -25 -11 -49
-19 -55 -19 -5 1 -50 -11 -100 -27 -72 -23 -93 -35 -105 -57 -19 -34 -60 -52
-53 -23 3 10 9 19 14 19 5 0 9 4 9 10 0 12 -97 1 -135 -16 -44 -20 -65 -34
-118 -82 -35 -32 -53 -42 -65 -36 -28 12 -92 17 -92 7 0 -5 -14 -8 -30 -5 -50
7 -245 -9 -229 -19 12 -8 12 -11 -1 -20 -11 -8 -12 -12 -2 -16 22 -9 13 -22
-20 -27 -98 -15 -119 -16 -113 -6 10 16 -62 12 -95 -5 -23 -12 -80 -15 -303
-15 -163 -1 -284 3 -300 9 -15 6 -48 8 -72 4 -38 -5 -44 -3 -40 9 5 12 -21 24
-118 57 -120 39 -130 41 -250 41 -136 0 -138 1 -292 91 -28 16 -56 23 -96 24
-40 1 -63 6 -82 22 l-27 21 21 26 c11 14 17 31 13 37 -3 6 0 15 7 20 11 8 10
13 -7 27 -11 10 -19 23 -17 29 3 7 -17 36 -43 65 -108 119 -99 105 -80 126 9
11 14 26 10 35 -3 9 -1 30 4 47 9 25 8 30 -4 30 -9 0 -18 9 -21 19 -3 11 -23
26 -51 36 -92 34 -557 248 -744 341 -149 74 -140 56 -104 229 36 169 190 513
320 715 56 87 58 90 52 90 -3 0 -34 -44 -69 -97z m4567 -1707 c14 -27 16 -38
7 -55 -14 -26 -23 -27 -20 -3 3 32 -1 42 -16 42 -16 0 -19 9 -9 34 9 24 17 20
38 -18z"/>
<path d="M22615 5459 c-6 -9 -3 -11 11 -6 18 7 18 6 1 -7 -16 -12 -15 -17 22
-72 22 -33 56 -76 74 -96 24 -25 38 -53 46 -90 17 -74 39 -117 86 -163 52 -51
105 -97 105 -90 0 3 9 1 20 -5 14 -8 26 -7 42 2 13 7 24 14 26 14 2 1 -4 19
-12 39 -9 21 -16 46 -16 56 0 17 -18 53 -58 114 -7 11 -17 32 -23 48 -6 15
-16 27 -22 27 -6 0 -8 3 -4 6 6 7 -47 109 -71 137 -52 58 -208 118 -227 86z"/>
<path d="M15298 5213 c7 -3 16 -2 19 1 4 3 -2 6 -13 5 -11 0 -14 -3 -6 -6z"/>
<path d="M21810 4897 c0 -18 34 -49 43 -40 4 3 7 1 7 -5 0 -14 39 -16 58 -3
17 10 11 47 -6 44 -7 -2 -12 2 -12 7 0 6 -20 10 -45 10 -31 0 -45 -4 -45 -13z"/>
<path d="M23702 4493 c2 -30 8 -38 28 -43 33 -8 48 9 42 48 -4 29 -8 32 -39
32 -33 0 -34 -1 -31 -37z"/>
<path d="M24640 3950 c0 -5 5 -10 10 -10 6 0 10 5 10 10 0 6 -4 10 -10 10 -5
0 -10 -4 -10 -10z"/>
<path d="M13048 2383 c7 -3 16 -2 19 1 4 3 -2 6 -13 5 -11 0 -14 -3 -6 -6z"/>
<path d="M7649 2193 c-13 -16 -12 -17 4 -4 16 13 21 21 13 21 -2 0 -10 -8 -17
-17z"/>
<path d="M10705 2185 c-33 -8 -73 -15 -90 -16 -22 -1 -25 -3 -8 -6 11 -2 58 3
103 11 94 18 145 13 213 -20 105 -52 260 -196 336 -313 49 -77 53 -71 9 13
-21 40 -65 94 -128 157 -157 158 -286 209 -435 174z"/>
<path d="M9545 2180 c-16 -7 -13 -9 16 -9 22 -1 52 -12 75 -27 88 -60 248
-244 319 -366 41 -73 42 -57 0 19 -71 130 -193 270 -299 344 -72 51 -78 53
-111 39z"/>
<path d="M9808 2163 c7 -3 16 -2 19 1 4 3 -2 6 -13 5 -11 0 -14 -3 -6 -6z"/>
<path d="M9491 2151 c-10 -6 -10 -10 -1 -16 13 -8 24 -1 19 14 -3 6 -10 7 -18
2z"/>
<path d="M10498 2153 c18 -2 45 -2 60 0 15 2 0 4 -33 4 -33 0 -45 -2 -27 -4z"/>
<path d="M9597 2069 c28 -31 85 -65 78 -47 -3 7 -15 20 -28 27 -12 8 -33 21
-47 30 l-25 15 22 -25z"/>
<path d="M7234 1748 l-19 -23 23 19 c21 18 27 26 19 26 -2 0 -12 -10 -23 -22z"/>
</g>
</svg>
